<svg width="208" height="208" viewBox="0 0 208 208" fill="none" xmlns="http://www.w3.org/2000/svg">
<rect width="207.223" height="207.223" rx="103.459" fill="#FECE2F"/>
<rect width="207.223" height="207.223" rx="54.1733" fill="#FECE2F"/>
<path d="M35.1645 98.3786C32.6093 96.6314 32.7395 93.0221 34.9926 90.8994C37.2457 88.7768 40.7824 89.011 43.5875 90.3202C44.3768 90.6886 45.2004 90.9882 46.0494 91.2137C48.7171 91.9222 51.5298 91.8709 54.17 91.0657C56.8102 90.2605 59.1728 88.7334 60.9911 86.6567C61.5698 85.9958 62.086 85.2876 62.5354 84.5414C64.1324 81.8896 66.9365 79.7216 69.9907 80.2256C73.0449 80.7296 75.1671 83.652 74.0219 86.5278C72.9327 89.2628 71.3821 91.806 69.4249 94.0412C68.0107 95.6564 66.4092 97.0823 64.6609 98.2928C65.5219 105.424 69.5877 112.137 76.2193 117.243C83.7301 123.026 93.917 126.275 104.539 126.275C115.161 126.275 125.348 123.026 132.859 117.243C139.417 112.193 143.466 105.572 144.387 98.5289C142.504 97.2691 140.783 95.7626 139.276 94.0412C137.319 91.806 135.768 89.2628 134.679 86.5278C133.534 83.652 135.656 80.7296 138.71 80.2256C141.765 79.7216 144.569 81.8896 146.166 84.5414C146.615 85.2876 147.131 85.9958 147.71 86.6567C149.528 88.7334 151.891 90.2605 154.531 91.0657C157.171 91.8709 159.984 91.9222 162.652 91.2137C163.501 90.9882 164.324 90.6886 165.114 90.3202C167.919 89.011 171.455 88.7768 173.708 90.8994C175.962 93.0221 176.092 96.6314 173.537 98.3786C171.106 100.04 168.401 101.285 165.529 102.048C162.941 102.735 160.274 103.016 157.624 102.891C155.671 111.14 150.503 118.805 142.695 124.817C132.575 132.609 118.85 136.987 104.539 136.987C90.2277 136.987 76.5025 132.609 66.3829 124.817C58.5688 118.8 53.3987 111.128 51.4486 102.87C48.6765 103.041 45.8817 102.768 43.172 102.048C40.3005 101.285 37.5946 100.04 35.1645 98.3786Z" fill="#0D1F22"/>
</svg>
