<svg width="32" height="32" viewBox="0 0 32 32" fill="none" xmlns="http://www.w3.org/2000/svg">
<path d="M21.4969 19.0187C21.6549 17.7032 21.6077 17.5102 22.5874 17.7232L22.8362 17.7452C23.5897 17.7794 24.5754 17.6239 25.1542 17.3549C26.4007 16.7767 27.1397 15.8107 25.9107 16.0644C23.1069 16.6427 22.9142 15.6937 22.9142 15.6937C25.8749 11.3009 27.1127 5.72494 26.0444 4.35994C23.1309 0.636943 18.0874 2.39744 18.0029 2.44319L17.9759 2.44844C17.4219 2.33319 16.8022 2.26469 16.1057 2.25344C14.8369 2.23269 13.8742 2.58619 13.1439 3.13994C13.1439 3.13994 4.14669 -0.566807 4.56519 7.80144C4.65419 9.58169 7.11694 21.2719 10.0542 17.7409C11.1277 16.4499 12.1652 15.3582 12.1652 15.3582C12.6804 15.7004 13.2972 15.8749 13.9442 15.8122L13.9942 15.7697C13.9787 15.9299 13.9854 16.0867 14.0144 16.2722C13.2577 17.1179 13.4802 17.2664 11.9672 17.5777C10.4367 17.8932 11.3359 18.4547 11.9227 18.6014C12.6347 18.7797 14.2809 19.0319 15.3937 17.4742L15.3494 17.6519C15.6464 17.8894 15.6262 19.3587 15.6682 20.4084C15.7102 21.4582 15.7807 22.4377 15.9947 23.0157C16.2087 23.5932 16.4612 25.0809 18.4494 24.6549C20.1109 24.2984 21.3812 23.7859 21.4969 19.0187Z" fill="black"/>
<path d="M17.802 25.6925C16.9225 25.6925 16.35 25.3525 16.002 25.024C15.477 24.5288 15.2688 23.8905 15.1445 23.5093L15.0908 23.35C14.8403 22.6738 14.7555 21.7003 14.7053 20.4468C14.6979 20.2508 14.6916 20.0548 14.6865 19.8588C14.6823 19.7085 14.677 19.52 14.6695 19.3223C14.3526 19.4733 14.0163 19.5796 13.6703 19.6383C13.0503 19.7443 12.3838 19.7098 11.6888 19.536C11.1985 19.4135 10.689 19.1595 10.3988 18.767C9.55252 19.5083 8.74527 19.4075 8.30552 19.261C7.52977 19.0023 6.83552 18.2755 6.18277 17.0385C5.71802 16.1578 5.26827 15.0098 4.84602 13.627C4.11102 11.2188 3.64402 8.68228 3.60252 7.84978C3.47202 5.24303 4.17352 3.37903 5.68752 2.30978C8.07627 0.622527 11.695 1.61453 13.0143 2.06503C13.9005 1.53078 14.9433 1.27053 16.1218 1.28953C16.7548 1.29978 17.3573 1.35553 17.917 1.45503C18.5008 1.27153 19.6543 1.00803 20.9745 1.02428C23.407 1.05328 25.4228 2.00128 26.8035 3.76578C27.7888 5.02478 27.3018 7.66828 26.9235 9.13228C26.3918 11.191 25.4595 13.3813 24.3145 15.2878C24.6255 15.29 25.0758 15.2525 25.7163 15.1205C26.9798 14.8595 27.349 15.537 27.4493 15.8403C27.851 17.057 26.1048 17.9763 25.56 18.229C24.862 18.5533 23.7243 18.7505 22.7923 18.7078L22.7515 18.705L22.5068 18.6835L22.4825 18.8875L22.4593 19.0873C22.3968 21.5033 22.0515 23.0333 21.3413 24.0445C20.597 25.1043 19.5623 25.4015 18.651 25.5968C18.3722 25.6589 18.0876 25.691 17.802 25.6925ZM15.9515 16.899C16.5193 17.3533 16.569 18.208 16.6133 19.8055C16.6188 20.0048 16.624 20.1935 16.631 20.3698C16.6525 20.9033 16.7028 22.1528 16.8983 22.6808C16.926 22.7553 16.9508 22.8313 16.9768 22.9113C17.1948 23.5793 17.3043 23.914 18.247 23.712C19.0388 23.5425 19.4455 23.3903 19.764 22.9368C20.227 22.2773 20.486 20.9515 20.5335 18.995L21.4965 19.0185L20.54 18.9038L20.568 18.665C20.6598 17.878 20.7258 17.309 21.252 16.933C21.674 16.6313 22.1553 16.6605 22.5385 16.7295C22.1175 16.4118 22.001 16.0383 21.97 15.8853L21.8898 15.4898L22.1153 15.1548C23.4153 13.2258 24.4875 10.855 25.057 8.65028C25.642 6.38478 25.4635 5.18153 25.2853 4.95403C22.9238 1.93628 18.828 3.18203 18.4005 3.32378L18.328 3.36278L17.9655 3.43053L17.7798 3.39203C17.268 3.28578 16.6995 3.22703 16.0898 3.21703C15.132 3.20103 14.3595 3.42728 13.726 3.90803L13.2865 4.24128L12.7763 4.03103C11.6868 3.58553 8.48577 2.68978 6.79677 3.88603C5.85927 4.55003 5.43227 5.85128 5.52727 7.75353C5.55852 8.38153 5.98552 10.7588 6.68902 13.0648C7.66177 16.2513 8.54577 17.3095 8.91477 17.4328C8.97902 17.4545 9.14627 17.3245 9.31252 17.125C10.394 15.8243 11.4225 14.74 11.4658 14.6943L12.0235 14.1075L12.6978 14.5555C12.9695 14.7363 13.2693 14.8385 13.5773 14.8578L15.1855 13.4863L14.9525 15.8638C14.9473 15.9173 14.9448 15.9898 14.9658 16.1248L15.0358 16.5755L14.7325 16.915L14.6975 16.9543L15.581 17.3623L15.9515 16.899Z" fill="black"/>
<path d="M25.9114 16.0644C23.1074 16.6427 22.9147 15.6934 22.9147 15.6934C25.8752 11.3007 27.1127 5.72444 26.0447 4.35969C23.1309 0.636692 18.0874 2.39744 18.0032 2.44319L17.9759 2.44794C17.4219 2.33319 16.8022 2.26469 16.1054 2.25344C14.8367 2.23269 13.8742 2.58594 13.1439 3.13969C13.1439 3.13969 4.14644 -0.566808 4.56494 7.80144C4.65394 9.58169 7.11669 21.2719 10.0539 17.7409C11.1274 16.4499 12.1647 15.3582 12.1647 15.3582C12.6799 15.7004 13.2967 15.8749 13.9434 15.8122L13.9937 15.7697C13.9782 15.9299 13.9852 16.0867 14.0137 16.2722C13.2572 17.1179 13.4792 17.2664 11.9667 17.5777C10.4359 17.8932 11.3352 18.4547 11.9224 18.6014C12.6342 18.7797 14.2807 19.0319 15.3932 17.4742L15.3487 17.6519C15.6452 17.8894 15.8534 19.1967 15.8184 20.3817C15.7834 21.5667 15.7602 22.3802 15.9939 23.0157C16.2277 23.6512 16.4604 25.0809 18.4489 24.6549C20.1104 24.2987 20.9714 23.3759 21.0914 21.8369C21.1764 20.7427 21.3687 20.9044 21.3809 19.9259L21.5354 19.4627C21.7132 17.9792 21.5637 17.5007 22.5874 17.7234L22.8362 17.7452C23.5897 17.7797 24.5757 17.6239 25.1544 17.3549C26.4009 16.7764 27.1402 15.8107 25.9114 16.0644Z" fill="#336791"/>
<path d="M17.9025 25.0986C16.2447 25.0988 15.7197 23.7861 15.5047 23.2493C15.1905 22.4628 15.1225 19.4098 15.1925 16.9061C15.1971 16.8225 15.2342 16.744 15.2959 16.6873C15.3575 16.6307 15.4388 16.6003 15.5225 16.6026C15.6062 16.605 15.6856 16.6399 15.744 16.6999C15.8023 16.7599 15.835 16.8403 15.835 16.9241C15.7542 19.8118 15.869 22.4286 16.1015 23.0106C16.4647 23.9186 17.0155 24.7128 18.5732 24.3793C20.052 24.0621 20.6057 23.5013 20.8522 22.0718C21.0417 20.9746 21.4157 17.8533 21.4617 17.2373C21.468 17.1523 21.5079 17.0734 21.5724 17.0178C21.637 16.9622 21.721 16.9345 21.806 16.9408C21.8909 16.9471 21.9699 16.987 22.0255 17.0515C22.0811 17.1161 22.1088 17.2001 22.1025 17.2851C22.0545 17.9261 21.682 21.0416 21.4852 22.1811C21.194 23.8698 20.4412 24.6358 18.7077 25.0076C18.4432 25.066 18.1733 25.0965 17.9025 25.0986ZM8.91471 18.6873C8.76983 18.6873 8.62592 18.6636 8.48871 18.6171C7.41196 18.2578 6.38646 16.5043 5.44046 13.4048C4.72046 11.0453 4.26421 8.58281 4.22421 7.78256C4.10546 5.41006 4.71671 3.73131 6.04046 2.79331C8.65946 0.937559 13.0655 2.70481 13.2517 2.78081C13.3299 2.81352 13.3919 2.87578 13.4244 2.95404C13.4569 3.0323 13.4571 3.12022 13.4251 3.19866C13.393 3.27709 13.3313 3.33969 13.2533 3.37282C13.1753 3.40596 13.0874 3.40694 13.0087 3.37556V3.37581C12.9662 3.35831 8.74121 1.66581 6.41071 3.31856C5.27871 4.12131 4.75896 5.61231 4.86571 7.75081C4.89946 8.42481 5.32571 10.8286 6.05496 13.2176C6.89946 15.9843 7.86071 17.7306 8.69196 18.0076C8.82221 18.0513 9.21921 18.1836 9.78721 17.5011C10.8552 16.2161 11.8365 15.1906 11.8462 15.1803C11.906 15.1224 11.9858 15.0899 12.069 15.0897C12.1522 15.0895 12.2323 15.1215 12.2923 15.179C12.3524 15.2366 12.3878 15.3152 12.3912 15.3983C12.3945 15.4814 12.3655 15.5626 12.3102 15.6248C12.3005 15.6348 11.3342 16.6451 10.2812 17.9118C9.78246 18.5113 9.30421 18.6873 8.91471 18.6873ZM22.8947 15.9801C22.8364 15.9801 22.7791 15.9643 22.7291 15.9343C22.6791 15.9043 22.6382 15.8612 22.6108 15.8097C22.5834 15.7582 22.5706 15.7002 22.5737 15.6419C22.5768 15.5837 22.5958 15.5274 22.6285 15.4791C25.6212 11.0381 26.6717 5.67231 25.772 4.52281C24.6395 3.07581 23.0402 2.31981 21.019 2.27656C19.5222 2.24406 18.3325 2.62631 18.1382 2.69306L18.0895 2.71281C17.894 2.77431 17.744 2.66706 17.6875 2.54181C17.6553 2.47005 17.6504 2.38899 17.6738 2.3139C17.6972 2.23881 17.7472 2.17485 17.8145 2.13406L17.901 2.09856L17.8967 2.09981L17.9012 2.09831C18.2315 1.97756 19.4392 1.61506 20.9355 1.63231C23.1722 1.65581 25.0197 2.51856 26.2782 4.12656C26.8737 4.88756 26.875 6.64081 26.282 8.93656C25.6775 11.2771 24.54 13.7928 23.1615 15.8383C23.1321 15.8821 23.0924 15.9179 23.0459 15.9426C22.9993 15.9674 22.9474 15.9802 22.8947 15.9801ZM23.0475 18.0358C22.5365 18.0358 22.0785 17.9641 21.8042 17.7996C21.5222 17.6308 21.4685 17.4011 21.4615 17.2793C21.3845 15.9283 22.13 15.6931 22.5102 15.5858C22.4572 15.5058 22.3817 15.4116 22.304 15.3143C22.0822 15.0373 21.7787 14.6578 21.5447 14.0903C21.5082 14.0018 21.3932 13.7956 21.2602 13.5571C20.5395 12.2648 19.04 9.57556 20.0032 8.19831C20.4492 7.56106 21.3367 7.31031 22.6447 7.45031C22.26 6.27806 20.4275 2.61081 16.08 2.53956C14.7722 2.51756 13.6997 2.91981 12.894 3.73331C11.0897 5.55556 11.1552 8.85256 11.156 8.88531C11.1571 8.92748 11.1498 8.96945 11.1347 9.00884C11.1196 9.04822 11.0969 9.08424 11.0678 9.11483C11.0388 9.14543 11.004 9.17001 10.9655 9.18716C10.9269 9.20431 10.8854 9.21371 10.8432 9.21481C10.801 9.21591 10.7591 9.20869 10.7197 9.19357C10.6803 9.17845 10.6443 9.15572 10.6137 9.12668C10.5831 9.09763 10.5585 9.06285 10.5414 9.02431C10.5242 8.98577 10.5148 8.94423 10.5137 8.90206C10.5097 8.75581 10.4422 5.29606 12.4375 3.28106C13.3712 2.33806 14.6002 1.87256 16.0905 1.89681C18.8725 1.94256 20.6627 3.35656 21.675 4.53506C22.778 5.81906 23.319 7.23556 23.3635 7.70806C23.3967 8.05956 23.1445 8.13006 23.0935 8.14031L22.9777 8.14306C21.694 7.93756 20.8705 8.08006 20.53 8.56681C19.7972 9.61381 21.2157 12.1576 21.8215 13.2441C21.9762 13.5211 22.0877 13.7213 22.1387 13.8451C22.3377 14.3276 22.5972 14.6518 22.8057 14.9123C22.989 15.1416 23.148 15.3401 23.205 15.5736C23.2312 15.6198 23.6057 16.1733 25.827 15.7148C26.3837 15.6001 26.7175 15.6983 26.8195 16.0068C27.0202 16.6141 25.894 17.3221 25.2705 17.6118C24.711 17.8716 23.8192 18.0358 23.0475 18.0358ZM22.1022 17.2263C22.1725 17.2976 22.525 17.4201 23.2552 17.3888C23.9042 17.3608 24.589 17.2196 25 17.0291C25.5255 16.7851 25.876 16.5123 26.0577 16.3261L25.9567 16.3446C24.5365 16.6378 23.532 16.5988 22.9712 16.2283C22.9335 16.2034 22.8972 16.1764 22.8625 16.1476C22.8017 16.1716 22.7455 16.1873 22.7055 16.1986C22.3872 16.2878 22.0582 16.3801 22.1022 17.2263ZM12.928 19.0211C12.5752 19.0211 12.204 18.9733 11.8247 18.8781C11.432 18.7798 10.7695 18.4841 10.7797 17.9983C10.791 17.4531 11.5837 17.2896 11.8825 17.2281C12.9605 17.0061 13.0307 16.9171 13.3677 16.4893C13.466 16.3646 13.5882 16.2093 13.7547 16.0231C14.0022 15.7463 14.2727 15.6058 14.5587 15.6058C14.7577 15.6058 14.9212 15.6736 15.029 15.7181C15.373 15.8606 15.66 16.2051 15.778 16.6176C15.8845 16.9896 15.8337 17.3476 15.635 17.6256C14.983 18.5388 14.047 19.0211 12.928 19.0211ZM11.4737 18.0261C11.5707 18.1008 11.7647 18.2008 11.9805 18.2551C12.309 18.3371 12.6275 18.3788 12.928 18.3788C13.8435 18.3788 14.5782 17.9996 15.1122 17.2523C15.2235 17.0963 15.1902 16.8986 15.1605 16.7943C15.098 16.5763 14.943 16.3781 14.7832 16.3116C14.6965 16.2756 14.6247 16.2481 14.5587 16.2481C14.5232 16.2481 14.4155 16.2481 14.2337 16.4513C14.0802 16.6228 13.97 16.7628 13.8722 16.8866C13.4527 17.4193 13.2605 17.6001 12.012 17.8573C11.7075 17.9203 11.5512 17.9838 11.4737 18.0261ZM13.9442 16.5441C13.8675 16.5439 13.7934 16.5164 13.7352 16.4664C13.6771 16.4165 13.6387 16.3474 13.627 16.2716C13.6187 16.2182 13.6134 16.1645 13.611 16.1106C12.7925 16.0951 12.003 15.7441 11.4037 15.1186C10.646 14.3278 10.301 13.2323 10.4575 12.1131C10.6275 10.8976 10.564 9.82456 10.5297 9.24806C10.5212 9.12948 10.516 9.01068 10.514 8.89181C10.5145 8.79031 10.5165 8.52056 11.4177 8.06381C11.7382 7.90131 12.381 7.61781 13.083 7.54506C14.2465 7.42506 15.0132 7.94306 15.2427 9.00406C15.8622 11.8691 15.2917 13.1363 14.8752 14.0616C14.7975 14.2336 14.7242 14.3966 14.6657 14.5541L14.614 14.6933C14.394 15.2833 14.2037 15.7931 14.2622 16.1741C14.2751 16.2583 14.254 16.3442 14.2036 16.4129C14.1532 16.4816 14.0777 16.5275 13.9935 16.5406L13.9442 16.5441ZM11.1585 8.98056L11.1712 9.21006C11.2067 9.80881 11.2727 10.9233 11.0937 12.2023C10.9647 13.1253 11.2467 14.0266 11.8675 14.6743C12.358 15.1863 13.004 15.4688 13.6677 15.4688H13.6815C13.756 15.1556 13.8792 14.8251 14.012 14.4688L14.0635 14.3306C14.1297 14.1526 14.2072 13.9803 14.2892 13.7981C14.6902 12.9071 15.1892 11.7981 14.6145 9.13981C14.5005 8.61356 14.2245 8.30881 13.7707 8.20831C12.8387 8.00231 11.45 8.70331 11.1585 8.98056ZM13.0975 8.84431C13.0815 8.95781 13.3057 9.26106 13.5977 9.30156C13.8895 9.34231 14.1392 9.10531 14.155 8.99181C14.1707 8.87831 13.9467 8.75306 13.6545 8.71231C13.3627 8.67156 13.113 8.73056 13.0975 8.84431ZM13.665 9.41356L13.583 9.40781C13.4017 9.38256 13.2185 9.26831 13.0932 9.10206C13.0492 9.04381 12.9772 8.93031 12.9915 8.82931C13.012 8.68106 13.1925 8.59256 13.4747 8.59256C13.5382 8.59256 13.6032 8.59714 13.6697 8.60631C13.8237 8.62781 13.967 8.67231 14.0727 8.73131C14.256 8.83381 14.2695 8.94781 14.2612 9.00706C14.2385 9.17031 13.978 9.41356 13.665 9.41356ZM13.204 8.86331C13.2132 8.93331 13.3865 9.16456 13.6125 9.19581L13.6647 9.19956C13.8732 9.19956 14.0292 9.03531 14.0475 8.98156C14.0282 8.94506 13.8942 8.85381 13.6397 8.81881C13.585 8.81116 13.5298 8.80715 13.4745 8.80681C13.3115 8.80656 13.2242 8.84331 13.204 8.86331ZM21.9842 8.61256C22 8.72631 21.7762 9.02956 21.484 9.07006C21.192 9.11056 20.9422 8.87381 20.9262 8.76006C20.9107 8.64656 21.1347 8.52131 21.4267 8.48081C21.7187 8.43981 21.9682 8.49931 21.9842 8.61256ZM21.4167 9.12806C21.1355 9.12806 20.8932 8.90931 20.8732 8.76756C20.8502 8.59731 21.1305 8.46781 21.4195 8.42781C21.4833 8.41881 21.5457 8.41431 21.6067 8.41431C21.856 8.41431 22.021 8.48756 22.0375 8.60531C22.0482 8.68181 21.9897 8.79956 21.8887 8.90556C21.8222 8.97556 21.6822 9.09681 21.4917 9.12306L21.4167 9.12806ZM21.6065 8.52131C21.5505 8.52131 21.493 8.52539 21.434 8.53356C21.1435 8.57381 20.9707 8.69056 20.979 8.75306C20.9887 8.82156 21.174 9.02106 21.4165 9.02106L21.4762 9.01681C21.6347 8.99456 21.7537 8.89131 21.8105 8.83156C21.8995 8.73781 21.935 8.64981 21.9307 8.61956C21.9255 8.58031 21.8185 8.52131 21.6065 8.52131ZM22.405 15.1346C22.3468 15.1345 22.2897 15.1187 22.2398 15.0887C22.1899 15.0588 22.1491 15.0159 22.1217 14.9645C22.0943 14.9132 22.0814 14.8554 22.0843 14.7973C22.0872 14.7391 22.1058 14.6829 22.1382 14.6346C22.8222 13.6128 22.697 12.5706 22.576 11.5631C22.5242 11.1336 22.471 10.6898 22.485 10.2636C22.499 9.82531 22.5545 9.46381 22.6085 9.11381C22.6722 8.69956 22.7325 8.30781 22.7075 7.84331C22.7056 7.75983 22.7363 7.67891 22.7931 7.61767C22.8499 7.55643 22.9282 7.51968 23.0116 7.5152C23.095 7.51072 23.1769 7.53885 23.2399 7.59365C23.3029 7.64845 23.3421 7.72561 23.3492 7.80881C23.3777 8.33981 23.3095 8.78281 23.2435 9.21156C23.1925 9.54231 23.1397 9.88431 23.127 10.2841C23.1147 10.6613 23.163 11.0621 23.214 11.4861C23.343 12.5578 23.4887 13.7726 22.6722 14.9918C22.6102 15.0843 22.5085 15.1346 22.405 15.1346Z" fill="white"/>
<path d="M0.70874 25.7961C1.06766 25.7376 1.43085 25.7093 1.79449 25.7116C2.35324 25.7116 2.76299 25.8416 3.02299 26.0756C3.26349 26.2836 3.40649 26.6021 3.40649 26.9923C3.40649 27.3888 3.28924 27.7008 3.06824 27.9283C2.76924 28.2468 2.28174 28.4093 1.72924 28.4093C1.56024 28.4093 1.40424 28.4028 1.27449 28.3703V30.1256H0.70874V25.7961ZM1.27449 27.9086C1.39799 27.9411 1.55399 27.9541 1.74249 27.9541C2.42474 27.9541 2.84099 27.6226 2.84099 27.0181C2.84099 26.4396 2.43149 26.1601 1.80749 26.1601C1.56049 26.1601 1.37199 26.1796 1.27449 26.2056V27.9086ZM6.83199 28.526C6.83199 29.6895 6.02574 30.1968 5.26524 30.1968C4.41374 30.1968 3.75724 29.5728 3.75724 28.578C3.75724 27.525 4.44624 26.9075 5.31724 26.9075C6.22099 26.9073 6.83199 27.564 6.83199 28.526ZM4.33599 28.5586C4.33599 29.2476 4.73249 29.7676 5.29149 29.7676C5.83749 29.7676 6.24674 29.2541 6.24674 28.5456C6.24674 28.0126 5.98049 27.3366 5.30424 27.3366C4.62799 27.3366 4.33599 27.9606 4.33599 28.5586ZM7.47524 29.5401C7.64424 29.6506 7.94324 29.7676 8.22924 29.7676C8.64524 29.7676 8.84024 29.5596 8.84024 29.2996C8.84024 29.0266 8.67799 28.8771 8.25524 28.7211C7.68974 28.5196 7.42324 28.2076 7.42324 27.8306C7.42324 27.3236 7.83274 26.9075 8.50874 26.9075C8.82724 26.9075 9.10699 26.9986 9.28249 27.1026L9.13949 27.5185C8.94602 27.3994 8.72322 27.3364 8.49599 27.3366C8.15799 27.3366 7.96949 27.5315 7.96949 27.7655C7.96949 28.0255 8.15824 28.1426 8.56774 28.2986C9.11374 28.5066 9.39324 28.7796 9.39324 29.2476C9.39324 29.8001 8.96424 30.1901 8.21674 30.1901C7.87224 30.1901 7.55374 30.1056 7.33274 29.9756L7.47524 29.5401ZM10.8165 26.0753V26.9788H11.6352V27.4143H10.8165V29.1108C10.8165 29.5008 10.9267 29.7218 11.2455 29.7218C11.3572 29.7237 11.4687 29.7106 11.577 29.6828L11.603 30.1118C11.4927 30.1573 11.317 30.1898 11.0962 30.1898C10.8297 30.1898 10.615 30.1053 10.4785 29.9493C10.3162 29.7803 10.2575 29.5008 10.2575 29.1303V27.4143H9.76999V26.9788H10.2575V26.2248L10.8165 26.0753ZM14.9505 26.9791C14.9372 27.2066 14.9245 27.4601 14.9245 27.8436V29.6701C14.9245 30.3916 14.7815 30.8336 14.476 31.1068C14.1705 31.3928 13.7285 31.4838 13.332 31.4838C12.955 31.4838 12.539 31.3928 12.2852 31.2238L12.4282 30.7883C12.6362 30.9183 12.9612 31.0353 13.3512 31.0353C13.9362 31.0353 14.3652 30.7298 14.3652 29.9368V29.5858H14.3522C14.1767 29.8783 13.8387 30.1123 13.3512 30.1123C12.5712 30.1123 12.0122 29.4493 12.0122 28.578C12.0122 27.512 12.7077 26.9075 13.4292 26.9075C13.9755 26.9075 14.2745 27.1936 14.411 27.4536H14.424L14.45 26.9791H14.9505ZM14.359 28.2206C14.359 28.1231 14.3525 28.0386 14.3265 27.9606C14.2225 27.6291 13.943 27.3561 13.527 27.3561C12.9807 27.3561 12.591 27.8176 12.591 28.5456C12.591 29.1631 12.903 29.6766 13.5205 29.6766C13.8715 29.6766 14.19 29.4555 14.3135 29.0915C14.346 28.994 14.3592 28.8835 14.3592 28.786L14.359 28.2206ZM15.8342 27.9606C15.8342 27.5901 15.8277 27.2716 15.8082 26.9791H16.309L16.3282 27.5966H16.3542C16.4972 27.1741 16.8417 26.9075 17.2252 26.9075C17.2902 26.9075 17.3355 26.9141 17.3875 26.9271V27.4665C17.3235 27.4526 17.2582 27.446 17.1927 27.4471C16.7897 27.4471 16.5035 27.7526 16.4257 28.1816C16.4096 28.2695 16.4009 28.3586 16.3997 28.4481V30.1251H15.8342V27.9606ZM18.2135 28.6561C18.2265 29.4296 18.7202 29.748 19.2922 29.748C19.702 29.748 19.9487 29.6766 20.1632 29.5856L20.2607 29.9951C20.0592 30.0861 19.7147 30.1901 19.2142 30.1901C18.2457 30.1901 17.6672 29.5531 17.6672 28.6041C17.6672 27.6551 18.2262 26.9073 19.1427 26.9073C20.1697 26.9073 20.4427 27.8108 20.4427 28.3893C20.4427 28.5063 20.4297 28.5973 20.4232 28.6558L18.2135 28.6561ZM19.8905 28.2466C19.8967 27.8826 19.7407 27.317 19.0975 27.317C18.519 27.317 18.2655 27.8501 18.2197 28.2466H19.8905Z" fill="black"/>
<path d="M21.0927 29.436C21.3991 29.6202 21.7492 29.719 22.1067 29.722C22.6852 29.722 23.0232 29.4165 23.0232 28.9745C23.0232 28.565 22.7892 28.331 22.1977 28.1035C21.4827 27.85 21.0407 27.4795 21.0407 26.862C21.0407 26.1795 21.6062 25.6725 22.4577 25.6725C22.9062 25.6725 23.2312 25.7765 23.4262 25.887L23.2702 26.3485C23.0144 26.2112 22.7285 26.1397 22.4382 26.1405C21.8402 26.1405 21.6127 26.498 21.6127 26.797C21.6127 27.2065 21.879 27.408 22.4837 27.642C23.2247 27.9282 23.6017 28.2855 23.6017 28.929C23.6017 29.605 23.1012 30.19 22.0677 30.19C21.6452 30.19 21.1837 30.0665 20.9495 29.9105L21.0927 29.436ZM27.9892 30.7685C27.4242 30.6202 26.8648 30.4511 26.3122 30.2615C26.2212 30.229 26.1302 30.1965 26.0457 30.1965C25.0057 30.1575 24.1152 29.3905 24.1152 27.98C24.1152 26.576 24.9732 25.6725 26.1562 25.6725C27.3457 25.6725 28.1195 26.5955 28.1195 27.889C28.1195 29.0135 27.5995 29.735 26.8715 29.9885V30.0145C27.307 30.125 27.7815 30.229 28.152 30.294L27.9892 30.7685ZM27.5212 27.915C27.5212 27.0375 27.0665 26.1337 26.1367 26.1337C25.1812 26.1337 24.7132 27.0177 24.7197 27.967C24.7132 28.8965 25.2267 29.735 26.1107 29.735C27.0145 29.735 27.5212 28.916 27.5212 27.915ZM28.8535 25.744H29.4192V29.6505H31.2912V30.125H28.8535V25.744Z" fill="#336791"/>
</svg>
