<svg width="32" height="32" viewBox="0 0 32 32" fill="none" xmlns="http://www.w3.org/2000/svg">
<path d="M16 12C23.444 12 28 14.59 28 16C28 17.41 23.444 20 16 20C8.556 20 4 17.41 4 16C4 14.59 8.556 12 16 12ZM16 10C8.268 10 2 12.686 2 16C2 19.314 8.268 22 16 22C23.732 22 30 19.314 30 16C30 12.686 23.732 10 16 10Z" fill="#00BCD4"/>
<path d="M16 14C15.6044 14 15.2178 14.1173 14.8889 14.3371C14.56 14.5568 14.3036 14.8692 14.1522 15.2346C14.0009 15.6001 13.9613 16.0022 14.0384 16.3902C14.1156 16.7781 14.3061 17.1345 14.5858 17.4142C14.8655 17.6939 15.2219 17.8844 15.6098 17.9616C15.9978 18.0387 16.3999 17.9991 16.7654 17.8478C17.1308 17.6964 17.4432 17.44 17.6629 17.1111C17.8827 16.7822 18 16.3956 18 16C18 15.4696 17.7893 14.9609 17.4142 14.5858C17.0391 14.2107 16.5304 14 16 14Z" fill="#00BCD4"/>
<path d="M10.4579 5.50696C12.4749 5.50696 16.3949 8.68396 19.4639 14C23.1859 20.447 23.2209 25.687 21.9999 26.392C21.859 26.465 21.7014 26.4995 21.5429 26.492C19.5259 26.492 15.6049 23.316 12.5359 18C8.81389 11.553 8.77889 6.31296 9.99989 5.60796C10.141 5.53475 10.2991 5.49925 10.4579 5.50696ZM10.4569 3.50796C9.94725 3.49874 9.44435 3.62541 8.99989 3.87496C6.12989 5.53196 6.93789 12.304 10.8039 19C14.0879 24.69 18.5239 28.493 21.5439 28.493C22.0534 28.5014 22.5559 28.374 22.9999 28.124C25.8699 26.468 25.0619 19.696 21.1959 13C17.9119 7.30996 13.4759 3.50696 10.4559 3.50696L10.4569 3.50796Z" fill="#00BCD4"/>
<path d="M21.5429 5.507C21.7014 5.49947 21.8591 5.53397 21.9999 5.607C23.2209 6.313 23.1859 11.553 19.4639 18C16.3939 23.316 12.4739 26.493 10.4569 26.493C10.2984 26.5005 10.1408 26.466 9.99991 26.393C8.77891 25.686 8.81391 20.446 12.5359 14C15.6059 8.684 19.5259 5.507 21.5429 5.507ZM21.5429 3.507C18.5229 3.507 14.0879 7.311 10.8029 13C6.93891 19.696 6.12991 26.468 8.99991 28.124C9.44417 28.3742 9.94709 28.5016 10.4569 28.493C13.4769 28.493 17.9119 24.689 21.1969 19C25.0609 12.304 25.8699 5.532 22.9999 3.876C22.5556 3.62576 22.0527 3.49839 21.5429 3.507Z" fill="#00BCD4"/>
</svg>
