<svg width="32" height="32" viewBox="0 0 32 32" fill="none" xmlns="http://www.w3.org/2000/svg">
<path d="M29.0801 13.6666C29.0001 13.6133 28.3334 13.0933 26.8934 13.0933C26.5201 13.0933 26.1467 13.1333 25.7734 13.1999C25.4934 11.3333 23.9334 10.3866 23.8667 10.3466L23.4801 10.1199L23.2401 10.4799C22.9201 10.9599 22.6667 11.5066 22.5601 12.0666C22.2934 13.1333 22.4534 14.1466 23.0001 15.0133C22.3467 15.3866 21.2801 15.4799 21.0534 15.4799H3.49341C3.04008 15.4799 2.66675 15.8533 2.66675 16.3199C2.66675 17.8533 2.90675 19.3866 3.44008 20.8266C4.04008 22.4133 4.94675 23.5866 6.10675 24.3066C7.41341 25.1066 9.56008 25.5599 12.0001 25.5599C13.0534 25.5599 14.1467 25.4666 15.2267 25.2666C16.7201 24.9999 18.1601 24.4799 19.4801 23.7199C20.5733 23.0948 21.5518 22.2877 22.3734 21.3333C23.7734 19.7733 24.6001 17.9999 25.2001 16.4666H25.4534C26.9734 16.4666 27.9201 15.8533 28.4401 15.3333C28.7867 15.0133 29.0401 14.6266 29.2267 14.1733L29.3334 13.8533L29.0801 13.6666ZM5.13341 14.9866H7.48008C7.58675 14.9866 7.69341 14.8933 7.69341 14.7733V12.6666C7.69341 12.5599 7.60008 12.4533 7.48008 12.4533H5.13341C5.01341 12.4533 4.92008 12.5466 4.92008 12.6666V14.7733C4.93341 14.8933 5.01341 14.9866 5.13341 14.9866ZM8.37342 14.9866H10.7201C10.8267 14.9866 10.9334 14.8933 10.9334 14.7733V12.6666C10.9334 12.5599 10.8401 12.4533 10.7201 12.4533H8.37342C8.25342 12.4533 8.16008 12.5466 8.16008 12.6666V14.7733C8.17341 14.8933 8.25342 14.9866 8.37342 14.9866ZM11.6667 14.9866H14.0001C14.1334 14.9866 14.2267 14.8933 14.2267 14.7733V12.6666C14.2267 12.5599 14.1467 12.4533 14.0001 12.4533H11.6667C11.5601 12.4533 11.4667 12.5466 11.4667 12.6666V14.7733C11.4667 14.8933 11.5467 14.9866 11.6667 14.9866ZM14.9201 14.9866H17.2801C17.3867 14.9866 17.4801 14.8933 17.4801 14.7733V12.6666C17.4801 12.5599 17.4001 12.4533 17.2801 12.4533H14.9201C14.8134 12.4533 14.7201 12.5466 14.7201 12.6666V14.7733C14.7201 14.8933 14.8134 14.9866 14.9201 14.9866ZM8.37342 11.9999H10.7201C10.8267 11.9999 10.9334 11.8799 10.9334 11.7599V9.66661C10.9334 9.54661 10.8401 9.45328 10.7201 9.45328H8.37342C8.25342 9.45328 8.16008 9.53327 8.16008 9.66661V11.7599C8.17341 11.8799 8.25342 11.9999 8.37342 11.9999ZM11.6667 11.9999H14.0001C14.1334 11.9999 14.2267 11.8799 14.2267 11.7599V9.66661C14.2267 9.54661 14.1467 9.45328 14.0001 9.45328H11.6667C11.5601 9.45328 11.4667 9.53327 11.4667 9.66661V11.7599C11.4667 11.8799 11.5467 11.9999 11.6667 11.9999ZM14.9201 11.9999H17.2801C17.3867 11.9999 17.4801 11.8799 17.4801 11.7599V9.66661C17.4801 9.54661 17.3867 9.45328 17.2801 9.45328H14.9201C14.8134 9.45328 14.7201 9.53327 14.7201 9.66661V11.7599C14.7201 11.8799 14.8134 11.9999 14.9201 11.9999ZM14.9201 8.95994H17.2801C17.3867 8.95994 17.4801 8.86661 17.4801 8.74661V6.66661C17.4801 6.53327 17.3867 6.43994 17.2801 6.43994H14.9201C14.8134 6.43994 14.7201 6.51994 14.7201 6.66661V8.74661C14.7201 8.85327 14.8134 8.95994 14.9201 8.95994ZM18.2001 14.9866H20.5467C20.6667 14.9866 20.7601 14.8933 20.7601 14.7733V12.6666C20.7601 12.5599 20.6667 12.4533 20.5467 12.4533H18.2001C18.0934 12.4533 18.0001 12.5466 18.0001 12.6666V14.7733C18.0001 14.8933 18.0934 14.9866 18.2001 14.9866Z" fill="#0288D1"/>
</svg>
