<svg width="24" height="32" viewBox="0 0 24 32" fill="none" xmlns="http://www.w3.org/2000/svg">
<path d="M7.63687 24.7375C7.63687 24.7375 6.41624 25.4473 8.50558 25.6875C11.0368 25.9762 12.3304 25.9349 15.1199 25.4069C15.1199 25.4069 15.8533 25.8667 16.8774 26.2651C10.6243 28.945 2.72533 26.1098 7.63687 24.7375ZM6.87275 21.2402C6.87275 21.2402 5.50369 22.2537 7.5946 22.4699C10.2985 22.7489 12.4338 22.7717 16.1288 22.0602C16.1288 22.0602 16.6399 22.5783 17.4435 22.8617C9.88306 25.0725 1.46216 23.036 6.87275 21.2402Z" fill="#5382A1"/>
<path d="M13.3143 15.3077C14.8552 17.0816 12.9095 18.6779 12.9095 18.6779C12.9095 18.6779 16.8218 16.6583 15.0251 14.1292C13.347 11.7708 12.0601 10.5988 19.0267 6.55847C19.0267 6.55847 8.09141 9.28966 13.3143 15.3077Z" fill="#E76F00"/>
<path d="M21.5846 27.3242C21.5846 27.3242 22.4879 28.0684 20.5897 28.6442C16.9804 29.7377 5.56708 30.0678 2.39649 28.6878C1.25679 28.1921 3.39413 27.504 4.06641 27.3595C4.76754 27.2075 5.16828 27.2358 5.16828 27.2358C3.90077 26.3429 -3.02436 28.9891 1.65069 29.7468C14.4001 31.8144 24.8916 28.8159 21.5846 27.3242ZM8.22373 17.6167C8.22373 17.6167 2.41832 18.9957 6.16796 19.4963C7.75113 19.7083 10.9072 19.6604 13.847 19.414C16.2496 19.2114 18.6621 18.7804 18.6621 18.7804C18.6621 18.7804 17.8149 19.1433 17.202 19.5618C11.3066 21.1123 -0.0822126 20.391 3.19649 18.805C5.9693 17.4647 8.22373 17.6167 8.22373 17.6167ZM18.6382 23.4379C24.6312 20.3238 21.8603 17.3311 19.9262 17.7343C19.4521 17.8329 19.2408 17.9184 19.2408 17.9184C19.2408 17.9184 19.4168 17.6428 19.7529 17.5235C23.579 16.1783 26.5216 21.4908 18.5177 23.5949C18.5177 23.595 18.6105 23.5121 18.6382 23.4379Z" fill="#5382A1"/>
<path d="M15.0252 0.0342722C15.0252 0.0342722 18.3442 3.3545 11.8773 8.4598C6.69152 12.5552 10.6948 14.8903 11.8752 17.5582C8.8481 14.8272 6.6266 12.4229 8.117 10.1853C10.3044 6.90049 16.3643 5.30808 15.0252 0.0342722Z" fill="#E76F00"/>
<path d="M8.81285 31.8764C14.5654 32.2447 23.3989 31.6721 23.6081 28.9502C23.6081 28.9502 23.206 29.9821 18.854 30.8016C13.9441 31.7255 7.88855 31.6177 4.29688 31.0255C4.29697 31.0255 5.03204 31.634 8.81285 31.8764Z" fill="#5382A1"/>
</svg>
