<svg width="32" height="32" viewBox="0 0 32 32" fill="none" xmlns="http://www.w3.org/2000/svg">
<path fill-rule="evenodd" clip-rule="evenodd" d="M21.8147 25.0348C21.8569 24.9536 21.8974 24.8818 21.9319 24.8076C21.9537 24.7601 21.9872 24.7506 22.0344 24.7518C22.3177 24.7598 22.6009 24.7686 22.8844 24.7713C23.1252 24.7738 23.3664 24.7693 23.6074 24.7666C23.8789 24.7633 24.1504 24.7491 24.4217 24.7568C24.7829 24.7673 25.1349 24.8381 25.4617 24.9988C25.8519 25.1911 26.1472 25.4838 26.3484 25.8696C26.475 26.1141 26.554 26.3805 26.5812 26.6546C26.6242 27.0566 26.5959 27.4493 26.4684 27.8338C26.3104 28.3103 26.0104 28.6751 25.5937 28.9483C25.2729 29.1586 24.9212 29.2828 24.5442 29.3538C24.1452 29.4291 23.7449 29.4048 23.3447 29.4061C22.9057 29.4078 22.4669 29.3983 22.0279 29.3933C21.9512 29.3926 21.9402 29.3781 21.9604 29.3048L21.9792 29.2373C22.0219 29.1028 22.0449 29.0968 22.1814 29.0743C22.2783 29.0593 22.3708 29.0241 22.4532 28.9711C22.4992 28.9406 22.5182 28.8611 22.5362 28.7998C22.5517 28.7463 22.5524 28.6876 22.5529 28.6311C22.5592 27.7748 22.5657 26.9188 22.5692 26.0631C22.5702 25.8466 22.5647 25.6302 22.5529 25.4141C22.5444 25.2628 22.4637 25.1593 22.2837 25.1236C22.1437 25.0958 22.0027 25.0743 21.8619 25.0496L21.8147 25.0348ZM25.8337 27.1081C25.8147 26.9376 25.8054 26.7656 25.7749 26.5976C25.7019 26.1943 25.5254 25.8431 25.2154 25.5678C24.7142 25.1231 24.1107 25.0546 23.4782 25.1076C23.3342 25.1196 23.3032 25.1688 23.3009 25.3168C23.2974 25.5268 23.2939 25.7368 23.2937 25.9468C23.2927 26.6128 23.2927 27.2788 23.2937 27.9448C23.2937 28.1345 23.2963 28.3238 23.3014 28.5128C23.3074 28.7063 23.3777 28.8701 23.5672 28.9451C23.8659 29.0633 24.1802 29.0773 24.4937 29.0291C24.9944 28.9523 25.3447 28.6606 25.5797 28.2233C25.7657 27.8763 25.8182 27.4976 25.8337 27.1081ZM27.0509 29.3758C27.0449 29.2721 27.0874 29.1863 27.1399 29.1076C27.1542 29.0863 27.2032 29.0873 27.2369 29.0806L27.5234 29.0238C27.6247 29.0023 27.6779 28.9343 27.6922 28.8351C27.7017 28.7696 27.7107 28.7033 27.7114 28.6371C27.7182 28.1128 27.7232 27.5886 27.7262 27.0643C27.7287 26.5393 27.7267 26.0143 27.7267 25.4893L27.7244 25.3891C27.7142 25.2203 27.6327 25.1328 27.4652 25.1081L27.1019 25.0528C27.0572 25.0468 27.0409 25.0253 27.0572 24.9856C27.0852 24.9178 27.1119 24.8476 27.1514 24.7866C27.1662 24.7641 27.2159 24.7553 27.2494 24.7561C27.4229 24.7586 27.5964 24.7716 27.7699 24.7713L29.2802 24.7623C29.5712 24.7621 29.8522 24.8128 30.1132 24.9521C30.4004 25.1051 30.5612 25.3418 30.6072 25.6643C30.6552 26.0031 30.5524 26.2886 30.3049 26.5153C30.2032 26.6088 30.0714 26.6698 29.9534 26.7458L29.9149 26.7698C30.0244 26.8101 30.1287 26.8448 30.2302 26.8863C30.5272 27.0081 30.7634 27.1983 30.8884 27.5021C30.9872 27.7418 30.9872 27.9918 30.9287 28.2403C30.8377 28.6293 30.5814 28.8881 30.2482 29.0838C29.9354 29.2676 29.5969 29.3746 29.2364 29.3926C28.9039 29.4093 28.5699 29.4031 28.2367 29.4068L28.0437 29.4078C27.7225 29.4004 27.4013 29.3924 27.0802 29.3838L27.0509 29.3758ZM28.4352 27.8536H28.4384C28.4384 28.0181 28.4362 28.1826 28.4392 28.3471C28.4412 28.4536 28.4374 28.5631 28.4604 28.6656C28.4949 28.8188 28.5649 28.9571 28.7369 29.0011C28.9669 29.0613 29.2071 29.0718 29.4414 29.0321C29.7357 28.9808 29.9704 28.8333 30.0992 28.5531C30.1947 28.3448 30.2089 28.1241 30.1762 27.8986C30.1327 27.6016 29.9749 27.3861 29.7127 27.2448C29.5407 27.1521 29.3572 27.0953 29.1617 27.0878C28.9427 27.0796 28.7234 27.0791 28.5044 27.0723C28.4429 27.0706 28.4344 27.1018 28.4347 27.1523C28.4359 27.3858 28.4352 27.6196 28.4352 27.8536ZM28.9014 26.7348C29.0212 26.7288 29.1567 26.7271 29.2914 26.7136C29.5494 26.6878 29.7312 26.5581 29.8259 26.3113C29.8742 26.1861 29.8722 26.0571 29.8734 25.9268C29.8772 25.5876 29.6792 25.3096 29.3569 25.1946C29.1082 25.1058 28.8517 25.1043 28.5937 25.1113C28.4892 25.1141 28.4424 25.1598 28.4409 25.2651L28.4254 26.6373C28.4247 26.6918 28.4482 26.7153 28.5012 26.7171L28.9014 26.7348Z" fill="#94795D"/>
<path fill-rule="evenodd" clip-rule="evenodd" d="M2.63587 29.112L2.61762 29.348C2.44762 29.348 2.29087 29.3468 2.13412 29.3485C1.83887 29.3515 1.54362 29.3563 1.24812 29.3605L1.21962 29.3623C1.17737 29.3573 1.10062 29.3573 1.09862 29.3448C1.08612 29.2745 1.09012 29.2008 1.09337 29.128C1.09362 29.1198 1.12237 29.1093 1.13912 29.1053L1.36887 29.054C1.51212 29.0168 1.56262 28.955 1.56937 28.807C1.57712 28.6403 1.58487 28.4733 1.58562 28.3065C1.58787 27.896 1.58537 27.486 1.58712 27.0755C1.58737 26.9795 1.55412 26.908 1.46462 26.869C1.35826 26.8218 1.25117 26.7763 1.14337 26.7325C1.09237 26.712 1.02612 26.7008 1.03212 26.6323C1.03812 26.5625 1.10237 26.5443 1.16287 26.5305C1.41337 26.4733 1.66412 26.4175 1.91387 26.3565C1.99437 26.3368 2.07137 26.3035 2.16762 26.27C2.17262 26.322 2.18187 26.3715 2.18087 26.421L2.16612 26.6563C2.16587 26.6828 2.17962 26.7183 2.19937 26.733C2.21137 26.7423 2.25162 26.7255 2.27162 26.71C2.48512 26.5475 2.71112 26.4073 2.96887 26.3255C3.36812 26.1988 3.71087 26.3163 3.95087 26.6605C4.03537 26.7818 4.03562 26.7818 4.15287 26.697C4.35412 26.5508 4.56462 26.4218 4.80012 26.3368C5.31712 26.15 5.81387 26.387 5.99362 26.9078C6.05912 27.0968 6.08412 27.292 6.08362 27.4915L6.07887 28.816C6.07862 28.9253 6.11487 28.9875 6.21887 29.0215C6.33562 29.0598 6.45662 29.086 6.58812 29.1205L6.55762 29.3483C6.40812 29.3483 6.27062 29.3473 6.13312 29.3485C5.79712 29.3515 5.46112 29.3533 5.12537 29.361C5.06687 29.3625 5.05162 29.348 5.04862 29.2933C5.03887 29.118 5.03737 29.1183 5.20237 29.0788L5.25787 29.0645C5.41912 29.0205 5.47287 28.971 5.47412 28.8075C5.47787 28.338 5.48762 27.8673 5.46387 27.3988C5.43912 26.9128 5.05337 26.654 4.58237 26.7785C4.43036 26.8202 4.2872 26.8891 4.15987 26.982C4.11612 27.0133 4.10787 27.0493 4.11137 27.104C4.12487 27.311 4.13262 27.5182 4.13462 27.7255C4.13762 28.0883 4.13312 28.451 4.13462 28.814C4.13512 28.961 4.18537 29.0173 4.33062 29.0513L4.54637 29.101L4.58637 29.11C4.58937 29.179 4.59212 29.248 4.58887 29.317C4.58687 29.3603 4.55337 29.364 4.51587 29.3633C4.30612 29.358 4.09612 29.351 3.88637 29.3515C3.63112 29.352 3.37612 29.3593 3.12112 29.3638H3.06112C3.06112 29.2905 3.05762 29.2205 3.06362 29.1508C3.06487 29.134 3.09437 29.1105 3.11462 29.1053L3.36612 29.052C3.47287 29.0258 3.52387 28.971 3.52987 28.8625C3.55837 28.36 3.57887 27.8573 3.53162 27.355C3.52008 27.2558 3.49256 27.1592 3.45012 27.0688C3.32137 26.7843 3.03162 26.6655 2.69737 26.751C2.53862 26.7915 2.39537 26.8643 2.25987 26.956C2.23041 26.9743 2.2062 26.9999 2.18964 27.0304C2.17307 27.0609 2.16471 27.0951 2.16537 27.1298C2.1657 27.6311 2.16679 28.1323 2.16862 28.6333L2.17137 28.8265C2.17437 28.9613 2.23162 29.0323 2.36537 29.0613C2.45137 29.0808 2.53837 29.094 2.63587 29.112Z" fill="#50382B"/>
<path fill-rule="evenodd" clip-rule="evenodd" d="M17.7503 26.3214C17.789 26.5099 17.7883 26.6794 17.6498 26.8079C17.5123 26.9356 17.3383 26.8926 17.1685 26.8641C17.1843 26.9536 17.2018 27.0296 17.2103 27.1066C17.272 27.6789 17.0258 28.1036 16.495 28.3464C16.2945 28.4379 16.0818 28.4719 15.8645 28.4894C15.7565 28.4979 15.662 28.5804 15.6518 28.6691C15.6413 28.7591 15.6978 28.8516 15.8108 28.8786C15.944 28.9104 16.083 28.9194 16.2198 28.9351C16.5133 28.9686 16.81 28.9839 17.1 29.0364C17.5385 29.1154 17.7833 29.4981 17.706 29.9386C17.6373 30.3306 17.4103 30.6159 17.0938 30.8346C16.5605 31.2041 15.9755 31.3121 15.3525 31.1236C14.9963 31.0156 14.745 30.7814 14.6583 30.4024C14.6148 30.2126 14.661 30.0409 14.8038 29.9121C14.9735 29.7596 15.1583 29.6236 15.336 29.4796L15.3935 29.4219L15.3275 29.3756C15.1463 29.2896 15.0013 29.1719 14.945 28.9674C14.9258 28.8981 14.9458 28.8526 15.0045 28.8171C15.1045 28.7569 15.204 28.6957 15.3028 28.6334C15.3493 28.6044 15.3953 28.5744 15.4385 28.5409C15.4975 28.4959 15.4923 28.4624 15.4218 28.4364C15.2578 28.3759 15.112 28.2881 14.999 28.1531C14.8103 27.9279 14.7568 27.6596 14.7723 27.3764C14.7965 26.9339 15.0368 26.6424 15.4273 26.4549C15.8915 26.2321 16.3573 26.2181 16.8305 26.4211C17.0055 26.4961 17.19 26.5121 17.3778 26.4991C17.518 26.4891 17.6405 26.4361 17.7503 26.3214ZM16.0395 29.4916C15.691 29.4886 15.5818 29.5316 15.3773 29.7399C15.1483 29.9734 15.1495 30.2971 15.378 30.5316C15.5515 30.7094 15.768 30.7926 16.0088 30.8176C16.29 30.8466 16.567 30.8349 16.8225 30.6941C17.095 30.5434 17.2305 30.2634 17.1693 29.9814C17.1185 29.7486 16.947 29.6421 16.7383 29.5809C16.5008 29.5114 16.2553 29.4981 16.0395 29.4916ZM15.355 27.2646C15.3678 27.3614 15.373 27.4594 15.3945 27.5541C15.4503 27.7996 15.557 28.0154 15.8013 28.1246C16.088 28.2534 16.4543 28.1981 16.5798 27.7956C16.6656 27.5278 16.6556 27.2384 16.5515 26.9771C16.5076 26.8576 16.4283 26.7543 16.324 26.6811C16.075 26.5074 15.6258 26.4844 15.4428 26.8684C15.3833 26.9931 15.36 27.1259 15.355 27.2646Z" fill="#4F382B"/>
<path fill-rule="evenodd" clip-rule="evenodd" d="M11.8375 26.2595C11.8468 26.3023 11.8653 26.3508 11.8658 26.3995C11.8665 26.4923 11.8565 26.585 11.8513 26.6778V26.7583L11.9298 26.6983C12.1448 26.5213 12.3758 26.3705 12.6448 26.2893C13.1303 26.143 13.6153 26.4088 13.7735 26.9033C13.8335 27.0913 13.8573 27.2845 13.8595 27.481C13.8645 27.9175 13.8675 28.354 13.872 28.7905C13.8735 28.9473 13.8915 28.9753 14.0398 29.0205C14.1241 29.0457 14.2102 29.0649 14.2973 29.0778C14.345 29.0853 14.3655 29.104 14.363 29.1508L14.3635 29.1938C14.3618 29.3745 14.3493 29.3828 14.174 29.3823C13.7545 29.3815 13.3353 29.384 12.9158 29.3875C12.7908 29.3885 12.7905 29.3923 12.778 29.2688L12.7755 29.1978C12.7833 29.0913 12.7858 29.0923 12.8905 29.0768C12.961 29.0663 13.031 29.05 13.0998 29.032C13.1705 29.0138 13.2045 28.9615 13.214 28.8915C13.2188 28.856 13.225 28.8205 13.2248 28.785C13.2188 28.308 13.2265 27.8305 13.2005 27.3543C13.1795 26.969 12.8855 26.7395 12.4988 26.7658C12.3124 26.7787 12.1332 26.843 11.981 26.9515C11.8778 27.0238 11.857 27.128 11.8575 27.2403C11.8599 27.6863 11.8635 28.1324 11.8685 28.5785C11.8695 28.6763 11.8723 28.774 11.8815 28.871C11.8913 28.977 11.9285 29.0198 12.0325 29.0428C12.132 29.0648 12.2335 29.0775 12.3398 29.0953L12.3488 29.1773C12.3523 29.3685 12.3323 29.3828 12.1465 29.382C11.7128 29.3803 11.279 29.383 10.8455 29.3878C10.7773 29.3888 10.7483 29.3673 10.75 29.3008L10.749 29.2723C10.7378 29.1 10.7428 29.0935 10.9058 29.0655L10.9828 29.05C11.1593 29.0103 11.2045 28.9633 11.207 28.784C11.2153 28.2163 11.2183 27.6488 11.224 27.081C11.2248 26.9995 11.194 26.9363 11.118 26.9025C11.0114 26.8558 10.9041 26.8105 10.7963 26.7665C10.7368 26.742 10.6688 26.7265 10.6665 26.6443C10.665 26.5863 10.727 26.535 10.8118 26.5178C10.982 26.4833 11.1538 26.4545 11.322 26.4123C11.4895 26.3705 11.654 26.3145 11.8375 26.2595Z" fill="#4F372B"/>
<path fill-rule="evenodd" clip-rule="evenodd" d="M21.2161 27.7426C21.2081 28.2728 21.0704 28.7016 20.6954 29.0233C20.2204 29.4316 19.4794 29.5703 18.8736 29.2651C18.6151 29.1348 18.4251 28.9351 18.3014 28.6758C18.1116 28.2771 18.0641 27.8578 18.1631 27.4283C18.2611 27.0036 18.5184 26.6958 18.9034 26.4966C19.2994 26.2918 19.7164 26.2118 20.1561 26.3193C20.7124 26.4551 21.1121 26.9086 21.1916 27.4861C21.2059 27.5873 21.2114 27.6898 21.2161 27.7426ZM20.5719 28.0298L20.5504 28.0273C20.5504 27.9773 20.5531 27.9273 20.5499 27.8773C20.5316 27.5658 20.4616 27.2691 20.2811 27.0083C20.1099 26.7613 19.8766 26.6156 19.5731 26.5943C19.2334 26.5703 18.9479 26.7603 18.8476 27.1073C18.6971 27.6283 18.7481 28.1361 19.0126 28.6133C19.1279 28.8213 19.2986 28.9748 19.5274 29.0556C19.9756 29.2133 20.3731 29.0091 20.4899 28.5501C20.5329 28.3806 20.5454 28.2033 20.5719 28.0298Z" fill="#4F382B"/>
<path fill-rule="evenodd" clip-rule="evenodd" d="M10.2047 27.7836C10.1954 28.1641 10.1057 28.5158 9.87069 28.8216C9.61894 29.1491 9.27294 29.3241 8.87944 29.3978C8.41419 29.4848 7.97719 29.4058 7.60344 29.0936C7.42594 28.9451 7.30469 28.7548 7.22469 28.5383C7.09344 28.1833 7.06069 27.8196 7.14144 27.4488C7.22769 27.0521 7.45169 26.7488 7.79894 26.5453C8.20044 26.3106 8.63369 26.2058 9.09644 26.3113C9.69144 26.4473 10.0349 26.8351 10.1619 27.4221C10.1874 27.5406 10.1909 27.6631 10.2047 27.7836ZM9.55319 28.0346L9.53594 28.0321V27.9606C9.52619 27.6116 9.45794 27.2791 9.24969 26.9891C9.09544 26.7738 8.88894 26.6388 8.62419 26.6011C8.19269 26.5396 7.91069 26.7956 7.81719 27.1433C7.69519 27.5976 7.73344 28.0463 7.92219 28.4771C8.03994 28.7456 8.22594 28.9548 8.51169 29.0563C8.95719 29.2146 9.36069 29.0051 9.47344 28.5478C9.51494 28.3806 9.52744 28.2061 9.55319 28.0346Z" fill="#4F372B"/>
<path fill-rule="evenodd" clip-rule="evenodd" d="M20.5905 8.38599C20.8973 9.27274 21.1178 10.178 21.1905 11.116C21.2805 12.28 21.2395 13.436 20.994 14.5807L20.9625 14.6722C20.8855 14.6725 20.807 14.6627 20.7318 14.6745C20.096 14.7745 19.461 14.878 18.8258 14.981C18.169 15.0875 17.5118 15.1897 16.8563 15.3032C16.624 15.3432 16.3365 15.2955 16.2428 15.6165L16.1978 15.6317L16.2295 13.7122L16.1973 9.08074L16.5033 9.02824C17.0035 8.94649 17.5038 8.86324 18.0048 8.78349C18.6023 8.68874 19.2003 8.59624 19.7983 8.50374C20.0623 8.46324 20.3265 8.42549 20.5905 8.38599Z" fill="#439934"/>
<path fill-rule="evenodd" clip-rule="evenodd" d="M15.5662 21.2277C15.2435 20.9502 14.9095 20.685 14.6002 20.393C12.9357 18.823 11.718 16.9747 11.1182 14.7465C10.953 14.1335 10.843 13.5102 10.8075 12.8767C10.7825 12.4332 10.7467 11.986 10.7782 11.5447C10.8615 10.3715 11.0312 9.20948 11.3752 8.07923L11.3942 8.05298C11.4277 8.09748 11.4757 8.13698 11.4927 8.18723C11.8286 9.17623 12.1622 10.1661 12.4937 11.157C13.536 14.2697 14.577 17.3832 15.621 20.4955C15.6415 20.5562 15.6942 20.606 15.7322 20.6607L15.5662 21.2277Z" fill="#45A538"/>
<path fill-rule="evenodd" clip-rule="evenodd" d="M20.5905 8.38603C20.3263 8.42528 20.062 8.46328 19.7983 8.50378C19.2003 8.59628 18.6023 8.68878 18.0048 8.78353C17.504 8.86303 17.0038 8.94628 16.5033 9.02828L16.1973 9.08078L16.1948 8.88128C16.1845 8.71728 16.1675 8.55328 16.1653 8.38928L16.131 5.25078C16.123 4.59603 16.111 3.94128 16.0978 3.28678C16.091 2.87999 16.0793 2.47329 16.0625 2.06678C16.0525 1.84853 16.0173 1.63128 16.0033 1.41303C15.995 1.28753 16.006 1.16103 16.0088 1.03503C16.1648 1.33728 16.3175 1.64178 16.4778 1.94178C16.731 2.41603 17.1348 2.76553 17.4985 3.14678C18.935 4.65453 19.9548 6.40653 20.5905 8.38603Z" fill="#46A037"/>
<path fill-rule="evenodd" clip-rule="evenodd" d="M16.198 15.6318L16.243 15.6165C16.3368 15.2955 16.6243 15.3433 16.8565 15.3033C17.512 15.1898 18.1693 15.0875 18.826 14.981C19.4613 14.8783 20.0963 14.7748 20.732 14.6745C20.8073 14.6628 20.8858 14.6725 20.9628 14.6723C20.844 15.0963 20.7505 15.5295 20.5998 15.9418C20.4285 16.4093 20.2215 16.8658 20.0018 17.3133C19.6726 17.9806 19.2653 18.6065 18.7885 19.1778C18.422 19.6183 18.0135 20.026 17.6043 20.4283C17.3778 20.6505 17.1113 20.8318 16.8628 21.0318L16.7983 20.9878L16.5665 20.7898L16.3268 20.2638C16.1631 19.6504 16.0737 19.0195 16.0605 18.3848L16.065 18.2778L16.0978 17.8143C16.1085 17.656 16.123 17.498 16.1298 17.3398C16.1538 16.7708 16.1753 16.2013 16.198 15.6318Z" fill="#409433"/>
<path fill-rule="evenodd" clip-rule="evenodd" d="M16.198 15.6318C16.1755 16.2013 16.154 16.771 16.1298 17.3405C16.123 17.499 16.1088 17.657 16.0978 17.815L15.9518 17.8703C15.6273 16.915 15.3025 15.9698 14.985 15.0223C14.4598 13.4545 13.941 11.8845 13.4165 10.3163C12.993 9.0506 12.5665 7.78593 12.137 6.52226C12.1168 6.46326 12.0593 6.41676 12.0193 6.36451L12.9543 4.64526C12.9865 4.70101 13.0288 4.75326 13.049 4.81326C13.4815 6.09326 13.9133 7.37351 14.3413 8.65501C14.8983 10.3225 15.4515 11.9908 16.008 13.6585C16.0303 13.725 16.0668 13.7865 16.1018 13.8613L16.2298 13.7123L16.198 15.6318Z" fill="#4FAA41"/>
<path fill-rule="evenodd" clip-rule="evenodd" d="M12.019 6.3645C12.0593 6.41675 12.1168 6.46325 12.1368 6.52225C12.5663 7.78591 12.9928 9.05058 13.4163 10.3163C13.9408 11.8845 14.4595 13.4545 14.9848 15.0223C15.3023 15.9698 15.627 16.9148 15.9515 17.8703L16.0975 17.815L16.0648 18.2785L16.035 18.3853C15.9843 18.8925 15.9415 19.4008 15.8795 19.907C15.8485 20.1608 15.7823 20.4098 15.732 20.6608C15.6943 20.606 15.6413 20.5563 15.6208 20.4955C14.5765 17.3833 13.5358 14.2698 12.4935 11.157C12.1619 10.1664 11.8283 9.17647 11.4925 8.18725C11.4755 8.137 11.4275 8.0975 11.394 8.053L12.019 6.3645Z" fill="#4AA73C"/>
<path fill-rule="evenodd" clip-rule="evenodd" d="M16.2296 13.7123L16.1016 13.8613C16.0666 13.7865 16.0301 13.725 16.0079 13.6585C15.4514 11.9908 14.8981 10.3225 14.3411 8.65502C13.9126 7.37368 13.4818 6.09309 13.0489 4.81327C13.0286 4.75327 12.9864 4.70102 12.9541 4.64527L14.1104 3.12427C14.1469 3.17277 14.1989 3.21602 14.2176 3.27077C14.5384 4.21077 14.8569 5.15152 15.1731 6.09302C15.4686 6.97252 15.7596 7.85302 16.0586 8.73102C16.0786 8.78977 16.1484 8.83127 16.1949 8.88127L16.1974 9.08077L16.2296 13.7123Z" fill="#57AE47"/>
<path fill-rule="evenodd" clip-rule="evenodd" d="M16.1949 8.88128C16.1481 8.83153 16.0786 8.79003 16.0586 8.73103C15.7599 7.85303 15.4686 6.97253 15.1731 6.09303C14.8568 5.15152 14.5383 4.21077 14.2176 3.27078C14.1989 3.21603 14.1469 3.17278 14.1104 3.12428C14.4864 2.75603 14.8506 2.37453 15.2419 2.02328C15.5896 1.71128 15.8691 1.37678 15.8821 0.883528L15.9096 0.785278L16.0086 1.03478C16.0061 1.16078 15.9949 1.28728 16.0031 1.41278C16.0174 1.63103 16.0526 1.84828 16.0624 2.06653C16.0806 2.47278 16.0894 2.87978 16.0976 3.28653C16.1109 3.94103 16.1229 4.59578 16.1309 5.25053L16.1651 8.38903C16.1676 8.55328 16.1849 8.71728 16.1949 8.88128Z" fill="#60B24F"/>
<path fill-rule="evenodd" clip-rule="evenodd" d="M15.7322 20.6606C15.7824 20.4096 15.8487 20.1606 15.8797 19.9068C15.9417 19.4008 15.9844 18.8923 16.0352 18.3851L16.0479 18.3831L16.0604 18.3853C16.0736 19.02 16.163 19.6509 16.3267 20.2643C16.2929 20.3088 16.2457 20.3481 16.2277 20.3981C16.0889 20.7896 15.9579 21.1843 15.8184 21.5756C15.7994 21.6291 15.7459 21.6708 15.7087 21.7176L15.5659 21.2276L15.7322 20.6606Z" fill="#A9AA88"/>
<path fill-rule="evenodd" clip-rule="evenodd" d="M15.7087 21.7177C15.746 21.6707 15.7995 21.6292 15.8185 21.5757C15.958 21.1844 16.089 20.7897 16.2277 20.3982C16.2455 20.3482 16.293 20.3089 16.3267 20.2644L16.5665 20.7904C16.5192 20.8574 16.4537 20.9182 16.4275 20.9929L15.9685 22.3409C15.9495 22.3952 15.8852 22.4332 15.8417 22.4789L15.7087 21.7177Z" fill="#B6B598"/>
<path fill-rule="evenodd" clip-rule="evenodd" d="M15.8418 22.4788C15.885 22.433 15.9495 22.395 15.9685 22.3408L16.4275 20.9928C16.4535 20.918 16.5193 20.8573 16.5665 20.7903L16.7985 20.988C16.6865 21.0988 16.6243 21.2268 16.6618 21.3885L16.5913 21.6193C16.5593 21.6588 16.5128 21.6933 16.497 21.7385C16.3368 22.1975 16.184 22.659 16.0225 23.1178C16.002 23.1758 15.9453 23.2215 15.9055 23.273L15.8418 22.4788Z" fill="#C2C1A7"/>
<path fill-rule="evenodd" clip-rule="evenodd" d="M15.9054 23.2726C15.9454 23.2211 16.0021 23.1754 16.0224 23.1174C16.1839 22.6586 16.3369 22.1971 16.4969 21.7381C16.5126 21.6929 16.5591 21.6586 16.5911 21.6189L16.4939 22.6779C16.4679 22.7079 16.4304 22.7341 16.4179 22.7689L16.0944 23.6959C16.0716 23.7591 16.0281 23.8156 15.9941 23.8749C15.9639 23.8354 15.9099 23.7971 15.9074 23.7561C15.8979 23.5956 15.9046 23.4339 15.9054 23.2726Z" fill="#CECDB7"/>
<path fill-rule="evenodd" clip-rule="evenodd" d="M15.9941 23.8752C16.0281 23.816 16.0716 23.7595 16.0944 23.6962L16.4179 22.7692C16.4304 22.7342 16.4681 22.7082 16.4939 22.6782L16.4964 23.3732L16.2636 23.97L15.9941 23.8752Z" fill="#DBDAC7"/>
<path fill-rule="evenodd" clip-rule="evenodd" d="M16.2637 23.97L16.4964 23.3733L16.5444 24.0793L16.2637 23.97Z" fill="#EBE9DC"/>
<path fill-rule="evenodd" clip-rule="evenodd" d="M16.6615 21.3885C16.6242 21.227 16.6862 21.099 16.7982 20.988L16.8627 21.032L16.6615 21.3885Z" fill="#CECDB7"/>
<path fill-rule="evenodd" clip-rule="evenodd" d="M16.0604 18.3854L16.0479 18.3832L16.0352 18.3852L16.0649 18.2784L16.0604 18.3854Z" fill="#4FAA41"/>
</svg>
