<svg width="32" height="32" viewBox="0 0 32 32" fill="none" xmlns="http://www.w3.org/2000/svg">
<path d="M22.6792 19.0732C21.9967 19.0295 21.5999 18.6412 21.4949 17.915C21.4669 17.7217 21.4669 17.7167 21.4639 16.4625L21.4612 15.2485H22.0652L22.0674 16.4227C22.0697 17.481 22.0709 17.6052 22.0812 17.6795C22.1222 17.9817 22.2039 18.185 22.3434 18.3307C22.4549 18.4475 22.5854 18.5157 22.7662 18.552C22.8512 18.5692 23.0939 18.5692 23.1717 18.552C23.3461 18.5162 23.506 18.4296 23.6312 18.303C23.7789 18.1555 23.8882 17.9462 23.9412 17.7097L23.9587 17.63L23.9607 16.446L23.9627 15.2615H24.5794V18.985H23.9692V18.6895C23.9692 18.489 23.9669 18.395 23.9622 18.3965C23.9484 18.4127 23.9367 18.4306 23.9274 18.4497C23.8162 18.6474 23.6528 18.8107 23.4552 18.922C23.2252 19.0482 22.9944 19.0932 22.6792 19.0732ZM29.6042 19.0702C29.3556 19.0496 29.1153 18.9712 28.9024 18.8412C28.4654 18.5712 28.2069 18.1262 28.1314 17.5142C28.1052 17.3022 28.1019 17.0177 28.1239 16.8377C28.1727 16.4352 28.3309 16.0402 28.5564 15.7585C28.6139 15.686 28.7452 15.5552 28.8174 15.4975C29.0123 15.3418 29.2403 15.2331 29.4839 15.1797C29.6254 15.149 29.8744 15.1345 30.0247 15.1482C30.4022 15.1832 30.7477 15.3607 30.9827 15.64C31.2217 15.9237 31.3527 16.3202 31.3697 16.8085C31.3724 16.9079 31.3728 17.0073 31.3709 17.1067L31.3677 17.2657L30.0462 17.2672L28.7247 17.269V17.328C28.7247 17.5072 28.7682 17.7115 28.8437 17.8855C28.9087 18.0352 29.0209 18.1987 29.1124 18.278C29.3005 18.4403 29.5349 18.5394 29.7824 18.561C29.8759 18.5697 30.1139 18.5605 30.2202 18.5442C30.5239 18.4975 30.8127 18.3785 31.0454 18.2042C31.0729 18.1835 31.0992 18.1642 31.1039 18.1615C31.1107 18.1572 31.1124 18.2107 31.1122 18.4365V18.7165L31.0494 18.7552C30.7797 18.9198 30.4777 19.0243 30.1639 19.0617C30.0684 19.0735 29.7184 19.0787 29.6042 19.0702ZM30.7542 16.7065C30.7542 16.4062 30.6274 16.0725 30.4482 15.9007C30.3202 15.7782 30.1569 15.6991 29.9814 15.6747C29.8944 15.6612 29.7112 15.6665 29.6194 15.6847C29.4321 15.7206 29.2598 15.8121 29.1252 15.9472C28.9772 16.094 28.8652 16.273 28.7979 16.4702C28.7729 16.5427 28.7439 16.6615 28.7347 16.7275L28.7304 16.759H30.7542V16.7065ZM12.8279 18.9765L13.8252 16.3597L14.8197 13.7512H15.4587L15.4852 13.8187C15.5662 14.0265 17.4759 18.9792 17.4759 18.9817C17.4759 18.9835 17.3229 18.9847 17.1359 18.9847H16.7959L16.5209 18.2527L16.2454 17.5207H14.0289L14.0194 17.5457C14.0142 17.5592 13.8964 17.8887 13.7579 18.2775L13.5064 18.9847H13.1657C12.8962 18.9847 12.8257 18.9832 12.8279 18.9765ZM16.0432 16.9622C16.0432 16.961 15.8582 16.4595 15.6317 15.8472C15.2082 14.7027 15.1844 14.6337 15.1509 14.45C15.1352 14.364 15.1272 14.3615 15.1179 14.44C15.105 14.5252 15.0858 14.6093 15.0604 14.6917C15.0492 14.7265 14.8584 15.2492 14.6364 15.8537C14.5007 16.2216 14.3661 16.59 14.2327 16.9587C14.2327 16.9617 14.6402 16.9642 15.1379 16.9642C15.6357 16.9642 16.0432 16.9632 16.0432 16.9622ZM17.6814 18.8897V18.7942L18.7857 17.278L19.8899 15.7617L18.8899 15.7585L17.8904 15.7552L17.8887 15.5017L17.8869 15.2485H20.7789V15.4195L19.6747 16.944C19.0672 17.7825 18.5702 18.47 18.5702 18.4715C18.5702 18.473 19.0612 18.4747 19.6612 18.4747H20.7524V18.9847H17.6814V18.8897ZM25.7842 18.9805C25.7817 18.978 25.7799 18.1372 25.7799 17.1122V15.2482H26.3834V15.6325C26.3834 15.844 26.3859 16.0167 26.3889 16.0167C26.3922 16.0167 26.4069 15.9822 26.4217 15.94C26.4916 15.7429 26.6072 15.5651 26.7589 15.4212C26.8894 15.2947 27.056 15.212 27.2357 15.1845C27.2874 15.1762 27.3312 15.1745 27.4347 15.1772C27.5647 15.1807 27.6324 15.1902 27.7114 15.216L27.7364 15.224V15.85L27.6652 15.8145C27.5417 15.7519 27.4035 15.7242 27.2654 15.7345C27.1682 15.7395 27.1044 15.752 27.0267 15.781C26.8689 15.8392 26.7351 15.9483 26.6464 16.0912C26.5111 16.3119 26.425 16.5592 26.3939 16.8162C26.3889 16.8605 26.3862 17.2217 26.3849 17.9335L26.3832 18.9852H26.0859C25.9224 18.9852 25.7867 18.983 25.7842 18.9805Z" fill="#0089D6"/>
<path d="M4.06399 11.1442H7.11394L3.94787 20.5249C3.91536 20.6214 3.85341 20.7052 3.77075 20.7645C3.68809 20.8239 3.5889 20.8558 3.48714 20.8558H1.1136C1.03651 20.8558 0.960527 20.8374 0.891935 20.8022C0.823343 20.767 0.76411 20.716 0.719129 20.6534C0.674131 20.5908 0.644702 20.5184 0.633281 20.4422C0.621861 20.3659 0.628778 20.2881 0.65346 20.215L3.60326 11.4749C3.63581 11.3785 3.69776 11.2948 3.78041 11.2354C3.86306 11.176 3.96224 11.1441 4.06399 11.144V11.1442Z" fill="url(#paint0_linear_72_86)"/>
<path d="M8.49582 17.4363H3.65957C3.6146 17.4362 3.57063 17.4496 3.53342 17.4749C3.4962 17.5001 3.46746 17.536 3.45094 17.5779C3.43442 17.6197 3.43089 17.6655 3.44082 17.7094C3.45074 17.7533 3.47366 17.7931 3.50657 17.8238L6.61432 20.7245C6.70493 20.8088 6.82407 20.8557 6.94782 20.8558H9.68632L8.49582 17.4363Z" fill="#0078D4"/>
<path d="M4.06396 11.1442C3.96108 11.1437 3.86076 11.1762 3.77768 11.2369C3.69459 11.2976 3.63309 11.3832 3.60218 11.4814L0.657104 20.2071C0.630831 20.2804 0.622593 20.3589 0.633087 20.4361C0.643581 20.5132 0.672498 20.5867 0.717394 20.6504C0.76229 20.714 0.821845 20.7659 0.891024 20.8016C0.960203 20.8374 1.03697 20.8559 1.11484 20.8557H3.5497C3.64039 20.8395 3.72515 20.7996 3.79533 20.7399C3.8655 20.6802 3.91857 20.603 3.94912 20.5161L4.53639 18.7852L6.63429 20.7419C6.72218 20.8146 6.83245 20.8548 6.94652 20.8557H9.67494L8.47828 17.4361L4.98993 17.437L7.12493 11.1442H4.06396Z" fill="url(#paint1_linear_72_86)"/>
<path d="M7.95954 11.4745C7.92702 11.3782 7.86513 11.2946 7.78259 11.2353C7.70005 11.1761 7.60101 11.1442 7.4994 11.1442H4.10034C4.20193 11.1442 4.30096 11.1761 4.38349 11.2353C4.46601 11.2946 4.52789 11.3782 4.5604 11.4745L7.51027 20.2149C7.53497 20.288 7.54191 20.3659 7.53052 20.4421C7.51913 20.5184 7.48973 20.5908 7.44476 20.6535C7.3998 20.7161 7.34056 20.7672 7.27195 20.8024C7.20334 20.8376 7.12733 20.8559 7.05021 20.8559H10.4494C10.5265 20.8558 10.6025 20.8374 10.671 20.8022C10.7396 20.767 10.7988 20.716 10.8438 20.6533C10.8887 20.5907 10.9181 20.5183 10.9295 20.4421C10.9409 20.3658 10.934 20.288 10.9094 20.2149L7.95954 11.4745Z" fill="url(#paint2_linear_72_86)"/>
<defs>
<linearGradient id="paint0_linear_72_86" x1="5.17565" y1="11.8639" x2="2.00823" y2="21.2211" gradientUnits="userSpaceOnUse">
<stop stop-color="#114A8B"/>
<stop offset="1" stop-color="#0669BC"/>
</linearGradient>
<linearGradient id="paint1_linear_72_86" x1="6.16501" y1="16.2245" x2="5.43237" y2="16.4723" gradientUnits="userSpaceOnUse">
<stop stop-opacity="0.3"/>
<stop offset="0.071" stop-opacity="0.2"/>
<stop offset="0.321" stop-opacity="0.1"/>
<stop offset="0.623" stop-opacity="0.05"/>
<stop offset="1" stop-opacity="0"/>
</linearGradient>
<linearGradient id="paint2_linear_72_86" x1="5.76209" y1="11.5909" x2="9.23897" y2="20.8539" gradientUnits="userSpaceOnUse">
<stop stop-color="#3CCBF4"/>
<stop offset="1" stop-color="#2892DF"/>
</linearGradient>
</defs>
</svg>
