<svg width="32" height="32" viewBox="0 0 32 32" fill="none" xmlns="http://www.w3.org/2000/svg">
<path d="M15.9524 0.25647L1.13818 5.46997L3.47893 24.8792L15.9682 31.7435L28.5217 24.7865L30.8617 5.37772L15.9524 0.25647Z" fill="#B3B3B3"/>
<path d="M29.384 6.49948L15.918 1.90723V30.1035L27.2032 23.8577L29.384 6.49948Z" fill="#A6120D"/>
<path d="M2.80029 6.58224L4.80679 23.9407L15.9178 30.1035V1.90674L2.80029 6.58224Z" fill="#DD1B16"/>
<path d="M19.6248 16.9175L15.918 18.651H12.011L10.1743 23.2445L6.75854 23.308L15.918 2.93103L19.6248 16.9175ZM19.2663 16.0448L15.9425 9.46453L13.216 15.9315H15.9178L19.2663 16.0448Z" fill="#F2F2F2"/>
<path d="M15.9177 2.93103L15.9422 9.46453L19.036 15.9365H15.9245L15.9177 18.6468L20.22 18.651L22.2305 23.3085L25.499 23.369L15.9177 2.93103Z" fill="#B3B3B3"/>
</svg>
