<svg width="53" height="32" viewBox="0 0 53 32" fill="none" xmlns="http://www.w3.org/2000/svg">
<path d="M25.7956 31.9077C25.6189 31.9077 25.4541 31.8606 25.3009 31.7781L23.7344 30.8477C23.4988 30.718 23.6166 30.671 23.6873 30.6474C24.0053 30.5414 24.0642 30.5178 24.394 30.3295C24.4293 30.3058 24.4765 30.3176 24.5118 30.3412L25.7132 31.0597C25.7603 31.0832 25.8192 31.0832 25.8545 31.0597L30.5541 28.3388C30.6012 28.3153 30.6248 28.2681 30.6248 28.2093V22.7795C30.6248 22.7205 30.6012 22.6735 30.5541 22.6499L25.8545 19.9409C25.8074 19.9172 25.7485 19.9172 25.7132 19.9409L21.0136 22.6499C20.9665 22.6734 20.9429 22.7323 20.9429 22.7794V28.2092C20.9429 28.2564 20.9665 28.3152 21.0136 28.3388L22.2975 29.0808C22.9924 29.4342 23.4282 29.0219 23.4282 28.6097V23.2505C23.4282 23.1799 23.4871 23.1092 23.5695 23.1092H24.1702C24.2409 23.1092 24.3115 23.1681 24.3115 23.2505V28.6097C24.3115 29.5402 23.805 30.082 22.9217 30.082C22.6508 30.082 22.4388 30.082 21.8381 29.7875L20.6014 29.0808C20.2951 28.9042 20.1067 28.5744 20.1067 28.221V22.7912C20.1067 22.4379 20.2951 22.108 20.6014 21.9314L25.3009 19.2106C25.5954 19.0457 25.9959 19.0457 26.2903 19.2106L30.9899 21.9314C31.2961 22.108 31.4846 22.4379 31.4846 22.7912V28.221C31.4846 28.5744 31.2961 28.9042 30.9899 29.0808L26.2903 31.8017C26.1372 31.8724 25.9604 31.9077 25.7956 31.9077ZM27.2444 28.1739C25.1833 28.1739 24.7592 27.2317 24.7592 26.4308C24.7592 26.36 24.8181 26.2894 24.9006 26.2894H25.5131C25.5837 26.2894 25.6426 26.3365 25.6426 26.4072C25.7369 27.0314 26.0077 27.3377 27.2562 27.3377C28.2456 27.3377 28.6697 27.1139 28.6697 26.5838C28.6697 26.2776 28.5518 26.0539 27.0089 25.9007C25.725 25.7711 24.9241 25.4885 24.9241 24.4638C24.9241 23.5097 25.7251 22.9443 27.0678 22.9443C28.5754 22.9443 29.3175 23.4626 29.4118 24.5932C29.4118 24.6286 29.4 24.664 29.3764 24.6993C29.3528 24.7228 29.3175 24.7464 29.2821 24.7464H28.6696C28.6107 24.7464 28.5518 24.6993 28.5401 24.6404C28.3988 23.9926 28.0336 23.7806 27.0678 23.7806C25.9842 23.7806 25.8546 24.1575 25.8546 24.4401C25.8546 24.7817 26.0077 24.8877 27.4682 25.0762C28.917 25.2647 29.6002 25.5356 29.6002 26.5485C29.5884 27.585 28.7404 28.1739 27.2444 28.1739Z" fill="#539E43"/>
<path d="M11.2139 10.6713C11.2139 10.4593 11.0961 10.259 10.9077 10.153L5.91364 7.27911C5.83109 7.23192 5.73692 7.20838 5.64276 7.19656H5.59557C5.50141 7.19656 5.40714 7.23192 5.32469 7.27911L0.330656 10.153C0.142121 10.259 0.0244141 10.4592 0.0244141 10.6713L0.0362357 18.3979C0.0362357 18.5039 0.0951402 18.6099 0.189306 18.657C0.283573 18.7159 0.40128 18.7159 0.483828 18.657L3.45198 16.9609C3.64041 16.855 3.75822 16.6547 3.75822 16.4427V12.8267C3.75822 12.6148 3.87593 12.4145 4.06447 12.3085L5.32469 11.5782C5.41896 11.5193 5.52495 11.4957 5.63094 11.4957C5.73692 11.4957 5.84291 11.5193 5.92546 11.5782L7.18569 12.3085C7.37422 12.4145 7.49193 12.6146 7.49193 12.8267V16.4427C7.49193 16.6547 7.60974 16.855 7.79817 16.9609L10.7663 18.657C10.8122 18.6859 10.8653 18.7012 10.9194 18.7012C10.9736 18.7012 11.0267 18.6859 11.0726 18.657C11.1668 18.6099 11.2257 18.5039 11.2257 18.3979L11.2139 10.6713ZM35.2183 0.0353885C35.1241 -0.0117962 35.0063 -0.0117962 34.9238 0.0353885C34.8296 0.094293 34.7707 0.188459 34.7707 0.294446V7.9505C34.7707 8.02112 34.7354 8.09175 34.6647 8.13893C34.5941 8.17419 34.5234 8.17419 34.4527 8.13893L33.2042 7.42046C33.1127 7.36837 33.0092 7.34098 32.9039 7.34098C32.7985 7.34098 32.695 7.36837 32.6035 7.42046L27.6094 10.3062C27.421 10.4122 27.3032 10.6124 27.3032 10.8244V16.584C27.3032 16.7959 27.421 16.9963 27.6094 17.1023L32.6035 19.988C32.695 20.0401 32.7985 20.0675 32.9039 20.0675C33.0092 20.0675 33.1127 20.0401 33.2042 19.988L38.1983 17.1023C38.3867 16.9963 38.5045 16.7961 38.5045 16.584V2.22617C38.5045 2.00237 38.3867 1.80222 38.1983 1.69613L35.2183 0.0353885ZM34.759 14.6877C34.759 14.7466 34.7354 14.7937 34.6883 14.8172L32.9804 15.8066C32.9566 15.8183 32.9304 15.8243 32.9039 15.8243C32.8773 15.8243 32.8511 15.8183 32.8273 15.8066L31.1194 14.8172C31.0723 14.7937 31.0487 14.7348 31.0487 14.6877V12.7089C31.0487 12.65 31.0723 12.6029 31.1194 12.5794L32.8273 11.5899C32.8511 11.5783 32.8773 11.5722 32.9039 11.5722C32.9304 11.5722 32.9566 11.5783 32.9804 11.5899L34.6883 12.5794C34.7354 12.6028 34.759 12.6618 34.759 12.7089V14.6877ZM51.8376 12.6618C52.0261 12.5558 52.1321 12.3556 52.1321 12.1435V10.7419C52.1321 10.53 52.0143 10.3297 51.8376 10.2237L46.8789 7.34983C46.7874 7.29775 46.6839 7.27036 46.5786 7.27036C46.4732 7.27036 46.3697 7.29775 46.2782 7.34983L41.2841 10.2354C41.0956 10.3414 40.9779 10.5417 40.9779 10.7537V16.5134C40.9779 16.7253 41.0957 16.9256 41.2841 17.0316L46.2428 19.8584C46.4313 19.9644 46.6551 19.9644 46.8319 19.8584L49.8353 18.186C49.9295 18.1388 49.9884 18.0328 49.9884 17.9269C49.9884 17.8209 49.9295 17.7149 49.8353 17.6677L44.8177 14.782C44.7234 14.7231 44.6645 14.6289 44.6645 14.5229V12.7208C44.6645 12.6149 44.7234 12.5089 44.8177 12.4617L46.3842 11.5665C46.43 11.5376 46.4831 11.5223 46.5373 11.5223C46.5915 11.5223 46.6445 11.5376 46.6904 11.5665L48.257 12.4617C48.3512 12.5206 48.41 12.6148 48.41 12.7208V14.1342C48.41 14.2402 48.469 14.3462 48.5632 14.3933C48.6091 14.4222 48.6622 14.4375 48.7163 14.4375C48.7705 14.4375 48.8236 14.4222 48.8695 14.3933L51.8376 12.6618Z" fill="#333333"/>
<path d="M46.5019 12.3908C46.5194 12.3793 46.5399 12.3732 46.5608 12.3732C46.5818 12.3732 46.6022 12.3793 46.6197 12.3908L47.5738 12.9444C47.6091 12.9681 47.6326 13.0033 47.6326 13.0504V14.1577C47.6326 14.2048 47.6092 14.2401 47.5738 14.2637L46.6197 14.8172C46.6022 14.8288 46.5818 14.8349 46.5608 14.8349C46.5399 14.8349 46.5194 14.8288 46.5019 14.8172L45.5479 14.2637C45.5126 14.2401 45.489 14.2048 45.489 14.1577V13.0505C45.489 13.0033 45.5125 12.968 45.5479 12.9445L46.5019 12.3908Z" fill="#539E43"/>
<path d="M19.5648 7.37339C19.4733 7.32132 19.3698 7.29395 19.2645 7.29395C19.1592 7.29395 19.0557 7.32132 18.9641 7.37339L14.0055 10.2354C13.8169 10.3413 13.7109 10.5416 13.7109 10.7536V16.4897C13.7109 16.7017 13.8287 16.902 14.0055 17.0079L18.9641 19.8701C19.0557 19.9222 19.1592 19.9496 19.2645 19.9496C19.3698 19.9496 19.4733 19.9222 19.5648 19.8701L24.5236 17.0079C24.712 16.902 24.8181 16.7017 24.8181 16.4897V10.7537C24.8181 10.5417 24.7002 10.3414 24.5236 10.2355L19.5648 7.37339Z" fill="url(#paint0_linear_72_39)"/>
<mask id="mask0_72_39" style="mask-type:luminance" maskUnits="userSpaceOnUse" x="13" y="7" width="12" height="13">
<path d="M19.5648 7.37339C19.4733 7.32132 19.3698 7.29395 19.2645 7.29395C19.1592 7.29395 19.0557 7.32132 18.9641 7.37339L14.0055 10.2354C13.8169 10.3413 13.7109 10.5416 13.7109 10.7536V16.4897C13.7109 16.7017 13.8287 16.902 14.0055 17.0079L18.9641 19.8701C19.0557 19.9222 19.1592 19.9496 19.2645 19.9496C19.3698 19.9496 19.4733 19.9222 19.5648 19.8701L24.5236 17.0079C24.712 16.902 24.8181 16.7017 24.8181 16.4897V10.7537C24.8181 10.5417 24.7002 10.3414 24.5236 10.2355L19.5648 7.37339Z" fill="white"/>
</mask>
<g mask="url(#mask0_72_39)">
<path d="M24.5353 10.2355L19.553 7.37348C19.5041 7.34874 19.4528 7.32901 19.3999 7.31458L13.8169 16.8787C13.8632 16.9351 13.919 16.983 13.9819 17.0201L18.9641 19.8822C19.1055 19.9647 19.2703 19.9882 19.4234 19.941L24.6649 10.3535C24.6295 10.3064 24.5823 10.2708 24.5353 10.2355Z" fill="url(#paint1_linear_72_39)"/>
</g>
<mask id="mask1_72_39" style="mask-type:luminance" maskUnits="userSpaceOnUse" x="13" y="7" width="12" height="13">
<path d="M19.5648 7.37339C19.4733 7.32132 19.3698 7.29395 19.2645 7.29395C19.1592 7.29395 19.0557 7.32132 18.9641 7.37339L14.0055 10.2354C13.8169 10.3413 13.7109 10.5416 13.7109 10.7536V16.4897C13.7109 16.7017 13.8287 16.902 14.0055 17.0079L18.9641 19.8701C19.0557 19.9222 19.1592 19.9496 19.2645 19.9496C19.3698 19.9496 19.4733 19.9222 19.5648 19.8701L24.5236 17.0079C24.712 16.902 24.8181 16.7017 24.8181 16.4897V10.7537C24.8181 10.5417 24.7002 10.3414 24.5236 10.2355L19.5648 7.37339Z" fill="white"/>
</mask>
<g mask="url(#mask1_72_39)">
<path fill-rule="evenodd" clip-rule="evenodd" d="M24.5471 17.0081C24.6885 16.9256 24.7945 16.7843 24.8417 16.6312L19.3763 7.30271C19.2349 7.27917 19.0818 7.29089 18.9523 7.37334L14.0054 10.2238L19.3409 19.9527C19.4185 19.9401 19.4939 19.9163 19.5647 19.8821L24.5471 17.0081Z" fill="url(#paint2_linear_72_39)"/>
<path fill-rule="evenodd" clip-rule="evenodd" d="M24.5471 17.0081L19.5766 19.8702C19.5064 19.906 19.4308 19.9298 19.3528 19.9409L19.4471 20.1176L24.9593 16.9257V16.855L24.818 16.6194C24.7944 16.7843 24.6884 16.9256 24.5471 17.0081Z" fill="url(#paint3_linear_72_39)"/>
<path fill-rule="evenodd" clip-rule="evenodd" d="M24.5471 17.0081L19.5766 19.8702C19.5064 19.906 19.4308 19.9298 19.3528 19.9409L19.4471 20.1176L24.9593 16.9257V16.855L24.818 16.6194C24.7944 16.7843 24.6884 16.9256 24.5471 17.0081Z" fill="url(#paint4_linear_72_39)"/>
</g>
<defs>
<linearGradient id="paint0_linear_72_39" x1="771.086" y1="228.603" x2="227.573" y2="1082.63" gradientUnits="userSpaceOnUse">
<stop stop-color="#41873F"/>
<stop offset="0.3288" stop-color="#418B3D"/>
<stop offset="0.6352" stop-color="#419637"/>
<stop offset="0.9319" stop-color="#3FA92D"/>
<stop offset="1" stop-color="#3FAE2A"/>
</linearGradient>
<linearGradient id="paint1_linear_72_39" x1="483.286" y1="705.231" x2="1844.5" y2="-34.324" gradientUnits="userSpaceOnUse">
<stop offset="0.1376" stop-color="#41873F"/>
<stop offset="0.4032" stop-color="#54A044"/>
<stop offset="0.7136" stop-color="#66B848"/>
<stop offset="0.9081" stop-color="#6CC04A"/>
</linearGradient>
<linearGradient id="paint2_linear_72_39" x1="-33.5551" y1="640.289" x2="1113.88" y2="640.289" gradientUnits="userSpaceOnUse">
<stop offset="0.09192" stop-color="#6CC04A"/>
<stop offset="0.2864" stop-color="#66B848"/>
<stop offset="0.5968" stop-color="#54A044"/>
<stop offset="0.8624" stop-color="#41873F"/>
</linearGradient>
<linearGradient id="paint3_linear_72_39" x1="-562.946" y1="192.491" x2="584.473" y2="192.491" gradientUnits="userSpaceOnUse">
<stop offset="0.09192" stop-color="#6CC04A"/>
<stop offset="0.2864" stop-color="#66B848"/>
<stop offset="0.5968" stop-color="#54A044"/>
<stop offset="0.8624" stop-color="#41873F"/>
</linearGradient>
<linearGradient id="paint4_linear_72_39" x1="751.637" y1="-721.74" x2="460.951" y2="801.447" gradientUnits="userSpaceOnUse">
<stop stop-color="#41873F"/>
<stop offset="0.3288" stop-color="#418B3D"/>
<stop offset="0.6352" stop-color="#419637"/>
<stop offset="0.9319" stop-color="#3FA92D"/>
<stop offset="1" stop-color="#3FAE2A"/>
</linearGradient>
</defs>
</svg>
