<svg width="47" height="32" viewBox="0 0 47 32" fill="none" xmlns="http://www.w3.org/2000/svg">
<path d="M13.9676 21.116L15.3943 25.7452C15.7148 26.7962 15.8485 27.5299 15.795 27.9481C16.5753 25.8583 17.1205 23.5809 17.4306 21.116H19.1462C18.4084 25.129 17.4357 28.0451 16.2279 29.8642C15.287 31.2661 14.2562 31.9669 13.1338 31.9669C12.8345 31.9669 12.4655 31.8765 12.0277 31.697V30.7297C12.2416 30.761 12.4926 30.7778 12.7812 30.7778C13.3048 30.7777 13.727 30.6327 14.048 30.343C14.4325 29.9901 14.6249 29.5934 14.6249 29.1538C14.6249 28.8536 14.4748 28.2375 14.176 27.3056L12.1881 21.116H13.9676ZM3.04843 18.2708L5.66161 26.2438H5.67775L8.30698 18.2708H10.4551C10.9255 22.2248 11.2033 25.8426 11.2886 29.122H9.4775C9.41368 26.0566 9.23739 23.1738 8.94863 20.4737H8.93286L6.17499 29.122H4.79578L2.0546 20.4737H2.03846C1.83521 23.0668 1.70697 25.9496 1.65373 29.122H0.00219727C0.108925 25.2636 0.37602 21.6469 0.803481 18.2708H3.04843Z" fill="#00758F"/>
<path d="M32.3229 18.1098C35.1339 18.1098 36.5394 19.9057 36.5394 23.4956C36.5394 25.4465 36.1167 26.92 35.2721 27.9155C35.1199 28.0974 34.9517 28.2546 34.7745 28.4002L36.7638 29.3837L36.7618 29.3836L36.0555 30.6033L33.465 29.0918C33.0355 29.2189 32.5633 29.2825 32.0483 29.2825C30.6681 29.2825 29.6371 28.8803 28.9555 28.0768C28.2073 27.1879 27.8334 25.7886 27.8334 23.8813C27.8334 21.9415 28.2553 20.4735 29.1002 19.4768C29.8696 18.565 30.9441 18.1098 32.3229 18.1098ZM23.715 18.1255C24.7196 18.1255 25.6332 18.3943 26.456 18.9301L26.0381 19.8614C25.334 19.5621 24.6398 19.4118 23.9552 19.4118C23.3998 19.4118 22.9718 19.5455 22.6734 19.8145C22.3734 20.0812 22.1878 20.4243 22.1878 20.8426C22.1878 21.4853 22.6457 22.0427 23.4912 22.5136C23.7682 22.665 24.0442 22.8182 24.3192 22.9731L24.3823 23.0086L24.414 23.0264L24.4771 23.0619L24.5087 23.0796L24.5718 23.1152C25.2118 23.476 25.814 23.8204 25.814 23.8204C26.6594 24.4205 27.0808 25.0603 27.0808 26.1141C27.0808 27.0344 26.7435 27.7899 26.0713 28.381C25.3985 28.9695 24.4947 29.2645 23.3629 29.2645C22.3043 29.2645 21.2784 28.9249 20.2847 28.2514L20.7495 27.3192C21.6047 27.7479 22.3786 27.962 23.0735 27.962C23.7253 27.962 24.2354 27.8165 24.6045 27.5291C24.9728 27.2396 25.1935 26.8359 25.1935 26.324C25.1935 25.6797 24.7453 25.1289 23.9231 24.6669C23.6658 24.5247 23.4092 24.3812 23.1534 24.2362L23.0904 24.2006C22.9747 24.1352 22.8581 24.069 22.744 24.0042L22.6821 23.969C22.1269 23.6532 21.6469 23.3773 21.6469 23.3773C20.825 22.7761 20.4129 22.131 20.4129 21.0681C20.4129 20.1891 20.7202 19.4786 21.334 18.9381C21.9493 18.3964 22.743 18.1255 23.715 18.1255ZM39.8429 18.2707V27.7871H43.2573V29.122H38.1112V18.2708L39.8429 18.2707ZM45.1545 27.7913V28.0168H44.7792V29.1208H44.4922V28.0168H44.1022V27.7913H45.1545ZM45.8477 27.7913L46.2082 28.6975L46.5392 27.7913H46.9461V29.1208H46.6756V28.109L46.2987 29.1208H46.1037L45.7262 28.109H45.7117V29.1208H45.4558V27.7913H45.8477ZM32.1461 19.4443C30.4896 19.4443 29.6609 20.8114 29.6609 23.5438C29.6609 25.1089 29.8805 26.2439 30.3189 26.9513C30.7249 27.6059 31.3608 27.9326 32.2266 27.9326C33.8831 27.9326 34.7117 26.5549 34.7117 23.8007C34.7117 22.2575 34.4921 21.1322 34.0543 20.4245C33.6478 19.7713 33.0122 19.4443 32.1462 19.4443" fill="#F29111"/>
<path d="M27.8045 0.672373C28.354 -0.677862 30.2753 0.344671 31.021 0.816327C31.2037 0.934333 31.4133 1.18364 31.6228 1.27579C31.9497 1.28863 32.2763 1.31421 32.6037 1.32787C33.2179 1.47219 33.7931 1.5901 34.2771 1.86573C36.5261 3.1902 37.9901 4.53988 39.3375 6.76924C39.6254 7.24145 39.7693 7.75244 40.0044 8.26343C40.3309 9.02511 40.6976 9.82465 41.0765 10.5449C41.2461 10.8863 41.3773 11.266 41.6129 11.5544C41.7048 11.6862 41.9661 11.7251 42.1222 11.8039C42.5539 12.0273 43.0769 12.197 43.4829 12.4592C44.2411 12.9319 44.9742 13.4953 45.6406 14.072C45.889 14.2947 46.0582 14.6098 46.2949 14.8453V14.9641C46.0848 15.0285 45.8755 15.0946 45.666 15.1475C45.2083 15.265 44.803 15.2384 44.359 15.3561C44.0847 15.4357 43.744 15.5406 43.4563 15.5673L43.4829 15.5941C43.6522 16.0778 44.568 16.4711 44.9868 16.7604C45.4955 17.1275 45.9669 17.5728 46.3463 18.0841C46.4773 18.2146 46.6084 18.3333 46.7387 18.4635C46.8299 18.5953 46.8556 18.7659 46.9478 18.8834V18.9232C46.8457 18.8872 46.7722 18.8184 46.7026 18.7465L46.6611 18.7031C46.6195 18.66 46.5776 18.6177 46.5299 18.5827C46.2412 18.3856 45.9546 18.1498 45.666 17.9665C45.1697 17.6516 44.5942 17.4689 44.0847 17.1528C43.7966 16.9694 43.522 16.7604 43.2473 16.5504C42.9984 16.3664 42.7243 16.013 42.5678 15.7508C42.4757 15.6059 42.463 15.4357 42.3578 15.3308C42.3766 15.1558 42.5369 15.1038 42.6988 15.0611L42.736 15.0513C42.7918 15.0368 42.8465 15.0223 42.8942 15.0031C43.574 14.7145 44.3844 14.6098 45.431 14.636C45.3915 14.3732 44.7376 14.0458 44.5288 13.8885C44.1098 13.5864 43.6661 13.2713 43.2216 12.9964C42.986 12.8525 42.5801 12.7474 42.3192 12.6297C41.9661 12.4854 41.1813 12.3412 40.9856 12.0663C40.6532 11.633 40.4145 11.1161 40.1827 10.594L40.1196 10.4515L40.0563 10.3091C39.7824 9.68042 39.442 9.02492 39.1674 8.38116C39.0238 8.06712 38.9579 7.7915 38.8006 7.4903C37.8464 5.642 36.4341 4.09454 34.7218 3.00626C34.1591 2.65216 33.5316 2.32445 32.839 2.10174C32.4465 1.98318 31.9754 2.04874 31.5572 1.95778H31.2819C31.047 1.89158 30.8509 1.64255 30.6676 1.51125C30.2628 1.23636 29.8573 1.05179 29.3732 0.855662C29.2036 0.776992 28.7192 0.593794 28.5501 0.738023C28.4454 0.764339 28.3923 0.803857 28.3665 0.908935C28.2624 1.06573 28.354 1.30192 28.4188 1.44652C28.6152 1.86554 28.8895 2.11457 29.1386 2.46868C29.3601 2.78272 29.6352 3.13683 29.7923 3.47829C30.1312 4.21227 30.289 5.02547 30.603 5.75936C30.7195 6.03535 30.9037 6.34939 31.0732 6.59833C31.2169 6.79593 31.4781 6.93878 31.5572 7.18891C31.7147 7.45115 31.3213 8.31643 31.2303 8.59123C30.8897 9.66648 30.9557 11.1611 31.3479 12.0932L31.3688 12.1423L31.3897 12.1921C31.533 12.5335 31.6863 12.9011 32.0671 12.9965C32.0933 12.9705 32.0671 12.9841 32.1191 12.9705C32.2112 12.249 32.2371 11.5543 32.4858 10.9899C32.6295 10.6369 32.9164 10.3874 33.1131 10.0994C33.2442 10.1778 33.2442 10.4145 33.3223 10.5711C33.4925 10.9773 33.6752 11.4226 33.885 11.83C34.3156 12.669 34.8001 13.4824 35.349 14.2163C35.5329 14.4784 35.7937 14.767 36.029 15.0031C36.1338 15.0945 36.2512 15.1473 36.3299 15.2649H36.3556V15.3045C35.9634 15.1599 35.7147 14.7541 35.4018 14.5172C34.8128 14.0718 34.1075 13.4031 33.7014 12.7613C33.5316 12.3929 33.3481 12.0398 33.1651 11.6732V11.6467C33.0868 11.7514 33.1131 11.8554 33.0739 12.0139C32.9041 12.669 33.0349 13.4164 32.4465 13.652C31.7795 13.928 31.282 13.2067 31.0732 12.8789C30.4061 11.7909 30.2234 9.9554 30.6938 8.47377C30.7983 8.14579 30.8126 7.75244 30.995 7.49057C30.9556 7.25383 30.7731 7.1891 30.6676 7.04404C30.4846 6.79611 30.3279 6.50728 30.1846 6.23194C29.9093 5.69408 29.7135 5.05142 29.5045 4.4746C29.4126 4.23904 29.3863 4.00257 29.2947 3.77958C29.1385 3.43923 28.8505 3.09777 28.6283 2.79666C28.3275 2.36388 27.4513 1.5251 27.8045 0.672373ZM32.093 3.24108C32.1279 3.27611 32.1701 3.30673 32.2138 3.3369L32.2664 3.37303C32.3365 3.42162 32.4045 3.47279 32.4461 3.54247C32.5121 3.63471 32.5244 3.72576 32.6035 3.81818C32.6035 4.13332 32.5121 4.34284 32.3277 4.4734C32.3277 4.4734 32.3152 4.48716 32.3022 4.49999C32.1977 4.28993 32.1061 4.08097 32.0009 3.87109C31.8712 3.68789 31.6879 3.54256 31.5823 3.33323H31.5569V3.30692C31.7147 3.26795 31.8712 3.24108 32.093 3.24108Z" fill="#00758F"/>
</svg>
