<svg width="110" height="32" viewBox="0 0 110 32" fill="none" xmlns="http://www.w3.org/2000/svg">
<path d="M0.715597 24.8331V12.5955H15.9948V11.8797H0.715597V0.715597H16.9609V0H0V25.5487H17.1039V24.8331H0.715597ZM30.8804 7.1564L24.547 15.4938L18.3564 7.15662H17.426L24.1175 16.0307L16.7817 25.5485H17.6406L24.5466 16.567L31.4884 25.5485H32.3829L25.0118 16.0303L31.7388 7.15619L30.8804 7.1564ZM34.5301 31.8464V20.3962H34.6017C35.0312 22.066 35.8781 23.4078 37.1423 24.4218C38.4066 25.4355 40.0168 25.9424 41.9728 25.9426C43.2371 25.9426 44.3583 25.6861 45.3365 25.1733C46.3144 24.6604 47.1314 23.9626 47.7876 23.0799C48.4435 22.1973 48.9445 21.1715 49.2905 20.0026C49.6366 18.8337 49.8095 17.6052 49.8094 16.3172C49.8094 14.9334 49.6304 13.6571 49.2725 12.4884C48.9145 11.3193 48.3957 10.3055 47.7161 9.44687C47.0361 8.58781 46.2131 7.91989 45.2469 7.44311C44.2809 6.96591 43.1895 6.7273 41.9728 6.7273C41.0425 6.7273 40.1778 6.86447 39.3787 7.13879C38.5796 7.41312 37.87 7.80077 37.2497 8.30174C36.6259 8.80671 36.0829 9.40398 35.6394 10.0729C35.1863 10.7529 34.8403 11.4984 34.6017 12.3095H34.5301V7.1564H33.8146V31.8464H34.5301ZM41.9728 25.2624C39.7307 25.2624 37.9297 24.4931 36.5698 22.9545C35.21 21.4159 34.5301 19.2034 34.5301 16.3168C34.5301 15.124 34.6972 13.9909 35.0312 12.9175C35.3652 11.8441 35.8482 10.9018 36.4802 10.0907C37.1122 9.27964 37.8934 8.63556 38.8239 8.1585C39.7545 7.68143 40.8041 7.44283 41.9728 7.44268C43.1656 7.44268 44.2093 7.68129 45.1039 8.1585C45.9985 8.63556 46.738 9.28558 47.3224 10.1086C47.9069 10.9315 48.3482 11.8738 48.6464 12.9353C48.9447 13.9968 49.0937 15.124 49.0936 16.3168C49.0936 17.3905 48.9564 18.458 48.6821 19.5194C48.4078 20.5807 47.9843 21.535 47.4118 22.3822C46.8395 23.2288 46.106 23.9205 45.2113 24.4574C44.3166 24.9941 43.2371 25.2624 41.9728 25.2624ZM53.7454 25.5487V15.136C53.7454 14.134 53.8886 13.156 54.1749 12.2019C54.461 11.2476 54.9023 10.4067 55.4987 9.67925C56.0952 8.95177 56.8526 8.3792 57.771 7.96156C58.6893 7.54391 59.7807 7.37095 61.045 7.44268V6.72709C59.9477 6.70332 58.9876 6.82259 58.1646 7.08489C57.3415 7.34733 56.6318 7.7052 56.0354 8.1585C55.4391 8.61179 54.962 9.14255 54.6042 9.75077C54.2469 10.3583 53.9815 11.0155 53.8169 11.7008H53.7454V7.1564H53.0298V25.5489L53.7454 25.5487ZM61.9395 16.4957H77.326C77.3738 15.2314 77.2486 14.0149 76.9503 12.846C76.6522 11.6769 76.1752 10.6392 75.5191 9.73294C74.8631 8.82634 74.0162 8.09872 72.9785 7.55007C71.9407 7.00141 70.7063 6.72709 69.2751 6.72709C68.2492 6.72709 67.2473 6.94185 66.2692 7.37138C65.2912 7.80063 64.4324 8.42674 63.6929 9.24972C62.9534 10.0727 62.357 11.0807 61.9039 12.2736C61.4507 13.4666 61.2241 14.8262 61.2239 16.3526C61.2239 17.7124 61.379 18.9827 61.6891 20.1634C61.9992 21.3442 62.4763 22.37 63.1203 23.2408C63.7646 24.1115 64.5936 24.7853 65.6073 25.2624C66.621 25.7396 67.8436 25.9662 69.2751 25.9423C71.3742 25.9423 73.1394 25.3519 74.5707 24.1712C76.0021 22.9904 76.849 21.3265 77.1114 19.1794H76.3958C76.0857 21.2072 75.2925 22.7279 74.0162 23.7416C72.7399 24.7555 71.1356 25.2624 69.2033 25.2624C67.8914 25.2624 66.7821 25.0358 65.8755 24.5827C64.9692 24.1294 64.2297 23.5091 63.657 22.7219C63.0846 21.9346 62.6612 21.0102 62.3869 19.9487C62.1124 18.8873 61.9633 17.7363 61.9395 16.4957ZM76.6104 15.7801H61.9398C62.0111 14.4919 62.2495 13.335 62.6551 12.3093C63.0608 11.2833 63.5916 10.4066 64.2476 9.67925C64.9035 8.95177 65.6669 8.3971 66.5377 8.01525C67.4085 7.6334 68.3448 7.44254 69.3466 7.44268C70.5392 7.44268 71.5889 7.66339 72.4955 8.10481C73.4018 8.54622 74.1592 9.14856 74.7677 9.91184C75.3759 10.6753 75.8351 11.5638 76.1452 12.5775C76.4553 13.5915 76.6104 14.659 76.6104 15.7801ZM92.1759 12.5955H92.8915C92.8915 10.5438 92.2952 9.05285 91.1025 8.12263C89.9096 7.19227 88.2874 6.72709 86.2359 6.72709C85.0908 6.72709 84.1246 6.87026 83.3375 7.15662C82.5503 7.44297 81.9062 7.81265 81.4052 8.26566C80.9044 8.71882 80.5466 9.21979 80.3318 9.76859C80.1171 10.3174 80.0097 10.8422 80.0097 11.343C80.0097 12.3448 80.1886 13.144 80.5466 13.7405C80.9044 14.3368 81.4649 14.802 82.2282 15.136C82.7529 15.3744 83.3493 15.5892 84.0174 15.7803C84.6853 15.971 85.4606 16.1737 86.3433 16.3883C87.1303 16.5794 87.9056 16.7703 88.6692 16.9609C89.4325 17.1519 90.1063 17.4083 90.6908 17.7301C91.2754 18.0523 91.7525 18.4639 92.1222 18.9648C92.4919 19.4658 92.6767 20.1218 92.6767 20.9327C92.6767 21.7201 92.4919 22.388 92.1222 22.9365C91.7556 23.4824 91.273 23.9407 90.7088 24.2785C90.1361 24.6243 89.498 24.8747 88.7944 25.0298C88.0907 25.1849 87.4049 25.2624 86.737 25.2624C84.5661 25.2624 82.9022 24.7794 81.7452 23.8134C80.5883 22.8472 80.0099 21.3264 80.0099 19.2509H79.2941C79.2941 21.5649 79.9202 23.2587 81.1726 24.3322C82.4251 25.4056 84.2799 25.9423 86.737 25.9423C87.524 25.9423 88.3172 25.8528 89.1166 25.6739C89.9155 25.4951 90.6311 25.2028 91.2634 24.7972C91.89 24.3972 92.4164 23.8586 92.8019 23.223C93.1957 22.5787 93.3925 21.7914 93.3925 20.8612C93.3925 19.9785 93.2196 19.2629 92.8737 18.7142C92.5277 18.1655 92.0745 17.7123 91.5138 17.3545C90.9531 16.9967 90.321 16.7165 89.6174 16.5137C88.9097 16.3098 88.1999 16.1129 87.4882 15.9231C86.6124 15.6933 85.7357 15.4667 84.8582 15.2434C84.107 15.0525 83.4093 14.8259 82.7651 14.5634C82.1449 14.301 81.6498 13.9253 81.28 13.4363C80.9103 12.9473 80.7255 12.2495 80.7255 11.343C80.7255 11.1761 80.7732 10.8779 80.8685 10.4485C80.964 10.019 81.1907 9.58361 81.5485 9.14234C81.9063 8.70106 82.4549 8.30747 83.1944 7.96156C83.9339 7.61564 84.9478 7.44268 86.2359 7.44268C87.1185 7.44268 87.9235 7.53811 88.6512 7.72897C89.3788 7.91982 90.005 8.224 90.5297 8.6415C91.0545 9.05901 91.46 9.58976 91.7464 10.2338C92.0327 10.8781 92.1759 11.6653 92.1759 12.5955ZM108.743 12.5955H109.459C109.459 10.5438 108.862 9.05285 107.67 8.12263C106.477 7.19241 104.855 6.72723 102.803 6.72709C101.658 6.72709 100.692 6.87026 99.9049 7.15662C99.1175 7.44283 98.4734 7.81251 97.9726 8.26566C97.4715 8.71882 97.1136 9.21979 96.899 9.76859C96.6842 10.3174 96.5769 10.8422 96.5771 11.343C96.5771 12.3448 96.756 13.144 97.114 13.7405C97.4716 14.3368 98.0322 14.802 98.7956 15.136C99.3205 15.3744 99.9168 15.5892 100.585 15.7803C101.253 15.971 102.028 16.1737 102.91 16.3883C103.698 16.5794 104.473 16.7703 105.236 16.9609C106 17.1519 106.674 17.4083 107.258 17.7301C107.843 18.0523 108.32 18.4639 108.689 18.9648C109.059 19.4657 109.244 20.1216 109.244 20.9327C109.244 21.7201 109.059 22.388 108.689 22.9365C108.323 23.4824 107.84 23.9407 107.276 24.2785C106.704 24.6243 106.065 24.8747 105.362 25.0298C104.658 25.1849 103.972 25.2624 103.304 25.2624C101.133 25.2624 99.4695 24.7794 98.3126 23.8134C97.1554 22.8472 96.5769 21.3264 96.5771 19.2509H95.8615C95.8615 21.5649 96.4877 23.2587 97.74 24.3322C98.9922 25.4056 100.847 25.9423 103.304 25.9423C104.091 25.9423 104.885 25.8528 105.684 25.6739C106.483 25.4951 107.198 25.2028 107.831 24.7972C108.457 24.3972 108.984 23.8586 109.369 23.223C109.763 22.5787 109.96 21.7914 109.96 20.8612C109.96 19.9785 109.787 19.2629 109.441 18.7142C109.095 18.1655 108.642 17.7123 108.081 17.3545C107.521 16.9967 106.889 16.7165 106.185 16.5137C105.477 16.3098 104.767 16.1129 104.056 15.9231C103.18 15.6933 102.303 15.4667 101.426 15.2434C100.674 15.0525 99.9763 14.8259 99.3323 14.5634C98.7121 14.301 98.2171 13.9253 97.8474 13.4363C97.4776 12.9473 97.2927 12.2495 97.2927 11.343C97.2927 11.1761 97.3404 10.8779 97.4359 10.4485C97.5314 10.0192 97.758 9.58375 98.1157 9.14234C98.4736 8.70121 99.0222 8.30762 99.7616 7.96156C100.501 7.61579 101.515 7.44283 102.803 7.44268C103.686 7.44268 104.491 7.53811 105.219 7.72897C105.946 7.91982 106.572 8.224 107.097 8.6415C107.622 9.05901 108.027 9.58976 108.314 10.2338C108.6 10.8781 108.743 11.6653 108.743 12.5955" fill="#222222"/>
</svg>
