<svg width="76" height="32" viewBox="0 0 76 32" fill="none" xmlns="http://www.w3.org/2000/svg">
<path d="M45.3326 11.0263C43.6742 11.0263 42.4393 11.8405 42.4393 13.8003C42.4393 15.2767 43.2532 16.3019 45.2431 16.3019C46.93 16.3019 48.0757 15.3078 48.0757 13.7389C48.0757 11.9611 47.0505 11.0263 45.3326 11.0263ZM42.0171 24.8637C41.6245 25.3451 41.2334 25.8571 41.2334 26.4607C41.2334 27.6657 42.77 28.0284 44.8808 28.0284C46.6289 28.0284 49.0105 27.9057 49.0105 26.2803C49.0105 25.314 47.8648 25.2545 46.4171 25.1638L42.0171 24.8637ZM50.9394 11.1173C51.4811 11.8106 52.0547 12.7757 52.0547 14.162C52.0547 17.5078 49.4322 19.4669 45.6348 19.4669C44.6692 19.4669 43.7951 19.3466 43.2532 19.1961L42.258 20.7931L45.2117 20.9739C50.4271 21.3063 53.5006 21.4574 53.5006 25.4648C53.5006 28.9321 50.4571 30.8903 45.2117 30.8903C39.756 30.8903 37.676 29.5037 37.676 27.1226C37.676 25.7662 38.279 25.0441 39.3341 24.0477C38.3391 23.6272 38.0079 22.874 38.0079 22.0595C38.0079 21.3958 38.3391 20.7934 38.8825 20.2201C39.4248 19.6483 40.0274 19.0749 40.751 18.4118C39.2742 17.6883 38.1584 16.1208 38.1584 13.8897C38.1584 10.424 40.4497 8.04351 45.0606 8.04351C46.3572 8.04351 47.1412 8.16262 47.8345 8.34484H53.7131V10.906L50.9394 11.1173ZM59.0162 5.63966C57.2977 5.63966 56.303 4.6441 56.303 2.92529C56.303 1.20884 57.2974 0.273438 59.0162 0.273438C60.7643 0.273438 61.7593 1.20884 61.7593 2.92529C61.7593 4.6441 60.7646 5.63966 59.0162 5.63966ZM55.127 23.7543V21.3742L56.6648 21.1638C57.087 21.1031 57.1468 21.013 57.1468 20.56V11.6977C57.1468 11.3671 57.0568 11.1549 56.7542 11.0654L55.127 10.4921L55.4582 8.05122H61.6985V20.56C61.6985 21.0429 61.7276 21.1031 62.1812 21.1641L63.7184 21.3745V23.7543H55.127ZM75.6387 22.5857C74.3421 23.2183 72.4431 23.7911 70.7243 23.7911C67.1374 23.7911 65.7815 22.3457 65.7815 18.9377V11.0411C65.7815 10.8604 65.7815 10.7398 65.5394 10.7398H63.4298V8.05625C66.0831 7.75403 67.1374 6.42781 67.4689 3.14218H70.3329V7.42366C70.3329 7.63403 70.3329 7.72499 70.5744 7.72499H74.8242V10.7392H70.3329V17.9431C70.3329 19.7214 70.7554 20.4142 72.3824 20.4142C73.2274 20.4142 74.1006 20.2038 74.8239 19.9324L75.6387 22.5857Z" fill="#2F2707"/>
<path d="M30.9757 14.6755L17.1932 0.893894C17.0045 0.705084 16.7804 0.555308 16.5337 0.453122C16.2871 0.350935 16.0227 0.29834 15.7557 0.29834C15.4888 0.29834 15.2244 0.350935 14.9777 0.453122C14.7311 0.555308 14.507 0.705084 14.3182 0.893894L11.4563 3.75612L15.0868 7.38634C15.5136 7.24138 15.9724 7.21876 16.4114 7.32102C16.8503 7.42329 17.2519 7.64636 17.5707 7.965C17.891 8.28587 18.1146 8.69032 18.216 9.13219C18.3175 9.57406 18.2926 10.0355 18.1443 10.464L21.6427 13.9629C22.4892 13.6714 23.4661 13.8601 24.1419 14.5372C24.3667 14.7617 24.545 15.0283 24.6666 15.3218C24.7882 15.6153 24.8508 15.9298 24.8508 16.2475C24.8508 16.5652 24.7882 16.8798 24.6666 17.1733C24.545 17.4667 24.3667 17.7334 24.1419 17.9579C23.7466 18.3536 23.2264 18.6001 22.6698 18.6553C22.1132 18.7106 21.5546 18.5713 21.0892 18.2611C20.6237 17.9509 20.2802 17.489 20.117 16.954C19.9538 16.419 19.981 15.844 20.1941 15.3268L16.9313 12.064L16.931 20.6506C17.1674 20.7678 17.3834 20.9223 17.5707 21.1081C17.7954 21.3327 17.9736 21.5994 18.0952 21.893C18.2168 22.1865 18.2794 22.5011 18.2794 22.8188C18.2794 23.1365 18.2168 23.4511 18.0952 23.7446C17.9736 24.0381 17.7954 24.3048 17.5707 24.5295C16.6255 25.4746 15.0937 25.4746 14.15 24.5295C13.868 24.2477 13.6601 23.9007 13.5446 23.5192C13.4291 23.1378 13.4097 22.7337 13.488 22.3429C13.5664 21.9521 13.7401 21.5867 13.9937 21.2792C14.2473 20.9717 14.5729 20.7317 14.9417 20.5804V11.9137C14.6452 11.7924 14.376 11.6128 14.15 11.3857C13.4341 10.6708 13.262 9.62041 13.6288 8.7413L10.0501 5.16204L0.600025 14.6115C0.411187 14.8004 0.261393 15.0245 0.159194 15.2712C0.0569956 15.518 0.00439453 15.7824 0.00439453 16.0494C0.00439453 16.3165 0.0569956 16.5809 0.159194 16.8277C0.261393 17.0744 0.411187 17.2985 0.600025 17.4874L14.3825 31.2693C14.5713 31.4581 14.7954 31.6079 15.042 31.7101C15.2887 31.8123 15.553 31.8649 15.82 31.8649C16.087 31.8649 16.3514 31.8123 16.598 31.7101C16.8447 31.6079 17.0688 31.4581 17.2575 31.2693L30.9757 17.5517C31.357 17.1702 31.5711 16.6529 31.5711 16.1136C31.5711 15.5743 31.357 15.057 30.9757 14.6755Z" fill="#DE4C36"/>
</svg>
