<svg width="118" height="32" viewBox="0 0 118 32" fill="none" xmlns="http://www.w3.org/2000/svg">
<path d="M62.427 7.96962C66.0319 7.96962 69.571 10.8208 69.571 15.9657V16.0313C69.571 21.1435 66.0646 24.0272 62.427 24.0272C59.8709 24.0272 58.2651 22.7492 57.1838 21.3074V26.7474C57.1857 27.2075 57.0076 27.6502 56.6874 27.9806C56.3673 28.3111 55.9305 28.5032 55.4706 28.5159L55.4142 28.5168C54.4638 28.5168 53.6774 27.7304 53.6774 26.7801V9.8049C53.6445 8.85457 54.4311 8.06792 55.3815 8.03523H55.4142C55.8743 8.03325 56.3169 8.21136 56.6475 8.53148C56.978 8.85159 57.1702 9.28831 57.1829 9.74827L57.1838 9.8049V10.8535C58.3308 9.24778 59.9365 7.96962 62.427 7.96962ZM109.092 7.93693C111.543 7.93693 113.137 9.1748 114.281 10.7446L114.336 10.8206V9.77198L114.337 9.71558C114.349 9.26556 114.533 8.83736 114.851 8.51894C115.17 8.20052 115.598 8.01606 116.048 8.00346L116.105 8.00254H116.138C117.102 8.03477 117.877 8.79172 117.876 9.74827L117.875 9.8049V20.5537C117.875 23.1425 117.187 25.076 115.909 26.354C114.532 27.7631 112.369 28.4185 109.584 28.4185C107.519 28.4185 105.488 27.9597 103.62 27.0421C103.03 26.8455 102.637 26.2557 102.637 25.6332C102.669 24.8136 103.325 24.1911 104.144 24.1911C104.373 24.1911 104.57 24.224 104.767 24.3223C106.209 25.1414 107.847 25.5346 109.486 25.5346C112.468 25.5346 114.172 24.0928 114.336 21.3074C113.254 22.7163 111.649 23.9945 109.092 23.9945C105.491 23.9945 102.019 21.1681 101.95 16.151L101.948 15.9984V15.933C101.948 10.7879 105.488 7.93693 109.092 7.93693ZM95.0992 8.03523C98.5732 8.03523 100.572 10.362 100.572 13.9341V22.2248C100.605 23.1751 99.8511 23.9289 98.9005 23.9618H98.8352C97.8848 23.9945 97.0984 23.2081 97.0655 22.2577V15.0154C97.0655 12.6232 95.8859 11.2467 93.7557 11.2467C91.724 11.2467 90.2819 12.6886 90.2819 15.081V22.2577C90.2829 22.4904 90.2378 22.7209 90.1492 22.936C90.0606 23.1511 89.9303 23.3465 89.7658 23.511C89.6013 23.6755 89.4059 23.8058 89.1908 23.8944C88.9757 23.983 88.7451 24.0281 88.5125 24.0272C88.2799 24.0282 88.0493 23.9831 87.8342 23.8945C87.6191 23.8059 87.4236 23.6756 87.2591 23.5111C87.0946 23.3466 86.9642 23.1512 86.8756 22.936C86.787 22.7209 86.7419 22.4904 86.7428 22.2577L86.7755 9.83759C86.7428 8.88726 87.5293 8.10084 88.4796 8.06792H88.5125C88.9727 8.06594 89.4154 8.24408 89.7459 8.56425C90.0764 8.88441 90.2686 9.32119 90.2813 9.78119L90.2819 9.83759V10.5586C91.3308 8.91995 93.1659 7.96962 95.0992 8.03523ZM46.3367 8.00254C48.0408 8.03523 49.6795 8.46136 51.1867 9.24778C51.7111 9.51 52.0387 10.0015 52.0387 10.5913C52.0387 11.3777 51.3833 12.0332 50.5969 12.0332H50.5642C50.3347 12.0332 50.1054 11.9678 49.8759 11.8695C48.7616 11.2467 47.5493 10.8865 46.2711 10.8208C44.8949 10.8208 44.1083 11.476 44.1083 12.3283V12.3937C44.1083 13.5406 45.7796 13.9994 47.582 14.5892L47.7298 14.6348L47.8783 14.6813C48.0519 14.7361 48.2256 14.7937 48.3995 14.854L48.5484 14.9065C50.506 15.608 52.3666 16.7151 52.3666 19.0789V19.1445C52.3666 22.3887 49.8432 23.9945 46.6643 23.9945C44.5671 23.9618 42.5025 23.3391 40.7658 22.1594C40.3399 21.897 40.0774 21.4384 40.1103 20.9469C40.1103 20.1605 40.7328 19.505 41.5192 19.505H41.5522C41.8144 19.505 42.0766 19.5704 42.3059 19.7017C43.6167 20.6191 45.1569 21.1106 46.73 21.1762C48.2374 21.1762 49.1221 20.5208 49.1221 19.5048V19.4394C49.1221 18.2269 47.4837 17.8337 45.6813 17.2766C45.4925 17.2222 45.3026 17.1654 45.1115 17.1062L44.9683 17.0613C42.9153 16.408 40.8641 15.3964 40.8641 12.7542V12.6886C40.8641 9.77198 43.2891 8.00254 46.3367 8.00254ZM83.2035 8.06792C83.6637 8.06594 84.1064 8.24408 84.4369 8.56425C84.7674 8.88441 84.9596 9.32119 84.9723 9.78119L84.9732 9.83759V22.2577C84.9732 23.2408 84.1868 23.9945 83.2035 23.9945C82.2205 23.9945 81.4668 23.2081 81.4668 22.2577V9.83759C81.4341 8.88726 82.2205 8.10084 83.1708 8.06792H83.2035ZM80.0576 9.51023V9.77221C80.0576 10.6242 79.4678 11.3453 78.6487 11.4763C76.1251 11.9024 74.421 14.098 74.421 17.1458V22.225C74.421 23.2081 73.6346 23.962 72.6516 23.962C71.7199 23.962 70.9457 23.2375 70.9157 22.3137L70.9146 22.2577V22.225L70.9475 9.8049C70.9146 8.8548 71.7012 8.06815 72.6516 8.03546H72.6843C73.1444 8.03348 73.587 8.21159 73.9176 8.53171C74.2481 8.85182 74.4403 9.28854 74.453 9.7485L74.4539 9.80513V10.6569C74.6176 9.34631 76.7805 8.03546 78.3209 8.03546C79.2056 7.96985 79.9922 8.62528 80.0576 9.51023ZM61.6406 11.0504C59.2484 11.0504 57.1509 13.0493 57.1509 15.9659V16.0316C57.1509 18.9808 59.2482 20.9471 61.6406 20.9471C64.033 20.9471 66.0319 19.0791 66.0319 16.0316V15.9659C66.0319 12.9837 64.0327 11.0504 61.6406 11.0504ZM109.912 11.0177C107.544 11.0177 105.562 12.9114 105.521 15.8414L105.52 15.9332V15.9986C105.52 19.0465 107.486 20.9471 109.912 20.9471C112.312 20.9471 114.391 18.9887 114.401 16.0886L114.401 15.9989V15.9332C114.401 13.0164 112.304 11.0177 109.912 11.0177ZM85.0061 3.7424V3.80778C85.0071 4.04045 84.962 4.27101 84.8734 4.48615C84.7848 4.7013 84.6545 4.89677 84.4899 5.0613C84.3254 5.22582 84.1299 5.35614 83.9148 5.44473C83.6997 5.53332 83.4691 5.57842 83.2364 5.57745C83.0038 5.57842 82.7732 5.53332 82.558 5.44473C82.3429 5.35614 82.1474 5.22582 81.9829 5.0613C81.8184 4.89677 81.6881 4.7013 81.5995 4.48615C81.5109 4.27101 81.4658 4.04045 81.4668 3.80778C81.4648 3.34765 81.6429 2.90501 81.963 2.57448C82.2831 2.24395 82.7198 2.05177 83.1798 2.03903L83.2364 2.03811C84.1868 2.00542 84.9732 2.79184 85.0061 3.7424ZM4.84909 4.4632C11.1409 -1.63199 21.2018 -1.46831 27.297 4.85641C27.9853 3.939 28.5751 2.92306 29.001 1.87443C31 7.96962 32.2125 13.082 31.7537 17.0473C31.5244 20.3898 30.2136 23.6013 28.0507 26.1574C22.4141 32.8426 12.3864 33.6946 5.70135 28.058L5.57265 27.9438L5.55032 27.9284C5.4734 27.8739 5.40268 27.8112 5.33945 27.7412L5.32172 27.7208L5.1113 27.5338C4.9147 27.3653 4.71809 27.1966 4.54198 27.0076L4.45588 26.9111C-1.63955 20.6193 -1.44271 10.5586 4.84909 4.4632ZM7.2088 25.7968C6.61876 25.338 5.76673 25.4036 5.30791 25.9934C4.90802 26.5078 4.90641 27.2212 5.30353 27.6998L5.32172 27.7208L5.57265 27.9438L5.59729 27.9606C6.165 28.3345 6.92747 28.2615 7.36926 27.7419L7.40517 27.6975C7.86399 27.1077 7.76592 26.2557 7.2088 25.7968ZM28.8369 3.5131C27.1984 6.95414 23.1349 9.57561 19.6283 10.3949C18.2776 10.7159 16.9976 10.7967 15.7484 10.86L15.3746 10.8789C13.6961 10.9629 12.0664 11.0557 10.3872 11.7058C3.4397 14.3602 3.57093 22.6185 7.37225 24.4862L7.60155 24.6174C7.60155 24.6174 10.1171 24.1172 12.7137 23.4422L12.9462 23.3812L13.0627 23.3503L13.2952 23.2882C14.38 22.9958 15.4468 22.6774 16.3187 22.3563C20.841 20.6849 25.822 16.5558 27.4607 11.7714C26.6086 16.7524 22.3156 21.5696 18.0227 23.7654C15.7289 24.945 13.9592 25.2073 10.1906 26.5181C9.91343 26.617 9.64013 26.7263 9.37122 26.8457L9.43614 26.837L9.56529 26.8199L9.69375 26.8038C10.5253 26.7007 11.2719 26.6491 11.2719 26.6491C16.6136 26.3869 25.0029 28.1566 28.9025 22.9461C32.9004 17.6373 30.6722 9.05141 28.8369 3.5131Z" fill="#6DB33F"/>
<path d="M7.20865 25.7968C7.76577 26.2556 7.86407 27.1076 7.40525 27.6974C6.94643 28.2873 6.09441 28.3529 5.50459 27.8941C4.91478 27.4352 4.84917 26.5834 5.30799 25.9934C5.76681 25.4036 6.61884 25.338 7.20865 25.7968ZM28.8374 3.51282C30.6722 9.05112 32.9007 17.637 28.9028 22.9458C25.003 28.1563 16.6139 26.3866 11.2722 26.6488C11.2722 26.6488 10.3219 26.7144 9.37153 26.8454C9.37153 26.8454 9.73205 26.6817 10.1909 26.5178C13.9595 25.207 15.7292 24.9448 18.0228 23.7651C22.3159 21.5693 26.6089 16.7521 27.461 11.7709C25.8223 16.5555 20.8413 20.6848 16.319 22.356C15.5095 22.6541 14.5316 22.9499 13.5278 23.2248L13.2958 23.2879C10.507 24.0396 7.60186 24.6172 7.60186 24.6172L7.37256 24.4859C3.57124 22.6182 3.44002 14.3599 10.3875 11.7055C13.4351 10.5257 16.319 11.1811 19.6288 10.3947C23.1352 9.57532 27.1988 6.95385 28.8374 3.51282Z" fill="white"/>
</svg>
